<mxfile host="www.draw.io" modified="2020-01-11T08:28:41.263Z" agent="Mozilla/5.0 (Windows NT 6.1; Win64; x64) AppleWebKit/537.36 (KHTML, like Gecko) Chrome/79.0.3945.117 Safari/537.36" etag="nleUweEundu8x3gkGZhu" version="12.5.1" type="github">
  <diagram name="Page-1" id="9f46799a-70d6-7492-0946-bef42562c5a5">
    <mxGraphModel dx="367" dy="217" grid="1" gridSize="10" guides="1" tooltips="1" connect="1" arrows="1" fold="1" page="1" pageScale="1" pageWidth="1100" pageHeight="850" background="#ffffff" math="0" shadow="0">
      <root>
        <mxCell id="0"/>
        <mxCell id="1" parent="0"/>
        <mxCell id="Jl83T3s884Ppd1om0JJ5-8" value="" style="rounded=0;whiteSpace=wrap;html=1;glass=0;" parent="1" vertex="1">
          <mxGeometry x="40" y="220" width="1200" height="1060" as="geometry"/>
        </mxCell>
        <mxCell id="78961159f06e98e8-17" value="AbstractTaskList" style="swimlane;html=1;fontStyle=1;align=center;verticalAlign=top;childLayout=stackLayout;horizontal=1;startSize=26;horizontalStack=0;resizeParent=1;resizeLast=0;collapsible=1;marginBottom=0;swimlaneFillColor=#ffffff;rounded=0;shadow=0;comic=0;labelBackgroundColor=none;strokeWidth=1;fillColor=none;fontFamily=Verdana;fontSize=12" parent="1" vertex="1">
          <mxGeometry x="840" y="290" width="160" height="220" as="geometry"/>
        </mxCell>
        <mxCell id="78961159f06e98e8-21" value="count:int" style="text;html=1;strokeColor=none;fillColor=none;align=left;verticalAlign=top;spacingLeft=4;spacingRight=4;whiteSpace=wrap;overflow=hidden;rotatable=0;points=[[0,0.5],[1,0.5]];portConstraint=eastwest;" parent="78961159f06e98e8-17" vertex="1">
          <mxGeometry y="26" width="160" height="26" as="geometry"/>
        </mxCell>
        <mxCell id="78961159f06e98e8-19" value="" style="line;html=1;strokeWidth=1;fillColor=none;align=left;verticalAlign=middle;spacingTop=-1;spacingLeft=3;spacingRight=3;rotatable=0;labelPosition=right;points=[];portConstraint=eastwest;" parent="78961159f06e98e8-17" vertex="1">
          <mxGeometry y="52" width="160" height="8" as="geometry"/>
        </mxCell>
        <mxCell id="78961159f06e98e8-20" value="add(Task):void" style="text;html=1;strokeColor=none;fillColor=none;align=left;verticalAlign=top;spacingLeft=4;spacingRight=4;whiteSpace=wrap;overflow=hidden;rotatable=0;points=[[0,0.5],[1,0.5]];portConstraint=eastwest;" parent="78961159f06e98e8-17" vertex="1">
          <mxGeometry y="60" width="160" height="26" as="geometry"/>
        </mxCell>
        <mxCell id="78961159f06e98e8-27" value="remove(Task):boolean" style="text;html=1;strokeColor=none;fillColor=none;align=left;verticalAlign=top;spacingLeft=4;spacingRight=4;whiteSpace=wrap;overflow=hidden;rotatable=0;points=[[0,0.5],[1,0.5]];portConstraint=eastwest;" parent="78961159f06e98e8-17" vertex="1">
          <mxGeometry y="86" width="160" height="26" as="geometry"/>
        </mxCell>
        <mxCell id="Jl83T3s884Ppd1om0JJ5-16" value="size():int" style="text;html=1;strokeColor=none;fillColor=none;align=left;verticalAlign=top;spacingLeft=4;spacingRight=4;whiteSpace=wrap;overflow=hidden;rotatable=0;points=[[0,0.5],[1,0.5]];portConstraint=eastwest;" parent="78961159f06e98e8-17" vertex="1">
          <mxGeometry y="112" width="160" height="26" as="geometry"/>
        </mxCell>
        <mxCell id="Jl83T3s884Ppd1om0JJ5-17" value="getTask(int):Task" style="text;html=1;strokeColor=none;fillColor=none;align=left;verticalAlign=top;spacingLeft=4;spacingRight=4;whiteSpace=wrap;overflow=hidden;rotatable=0;points=[[0,0.5],[1,0.5]];portConstraint=eastwest;" parent="78961159f06e98e8-17" vertex="1">
          <mxGeometry y="138" width="160" height="26" as="geometry"/>
        </mxCell>
        <mxCell id="Jl83T3s884Ppd1om0JJ5-18" value="iterator():Iterator&amp;lt;Task&amp;gt;" style="text;html=1;strokeColor=none;fillColor=none;align=left;verticalAlign=top;spacingLeft=4;spacingRight=4;whiteSpace=wrap;overflow=hidden;rotatable=0;points=[[0,0.5],[1,0.5]];portConstraint=eastwest;" parent="78961159f06e98e8-17" vertex="1">
          <mxGeometry y="164" width="160" height="26" as="geometry"/>
        </mxCell>
        <mxCell id="Jl83T3s884Ppd1om0JJ5-19" value="getStream():Stream&amp;lt;Task&amp;gt;" style="text;html=1;strokeColor=none;fillColor=none;align=left;verticalAlign=top;spacingLeft=4;spacingRight=4;whiteSpace=wrap;overflow=hidden;rotatable=0;points=[[0,0.5],[1,0.5]];portConstraint=eastwest;" parent="78961159f06e98e8-17" vertex="1">
          <mxGeometry y="190" width="160" height="26" as="geometry"/>
        </mxCell>
        <mxCell id="78961159f06e98e8-30" value="Main" style="swimlane;html=1;fontStyle=1;align=center;verticalAlign=top;childLayout=stackLayout;horizontal=1;startSize=25;horizontalStack=0;resizeParent=1;resizeLast=0;collapsible=1;marginBottom=0;swimlaneFillColor=#ffffff;rounded=0;shadow=0;comic=0;labelBackgroundColor=none;strokeWidth=1;fillColor=none;fontFamily=Verdana;fontSize=12" parent="1" vertex="1">
          <mxGeometry x="1520" y="50" width="160" height="50" as="geometry"/>
        </mxCell>
        <mxCell id="Jl83T3s884Ppd1om0JJ5-1" value="main(String[]) void" style="text;html=1;strokeColor=none;fillColor=none;align=center;verticalAlign=middle;whiteSpace=wrap;rounded=0;" parent="78961159f06e98e8-30" vertex="1">
          <mxGeometry y="25" width="160" height="20" as="geometry"/>
        </mxCell>
        <mxCell id="ICaOzD0aiAJlALt-W4pU-18" style="edgeStyle=orthogonalEdgeStyle;rounded=0;orthogonalLoop=1;jettySize=auto;html=1;exitX=0.5;exitY=0;exitDx=0;exitDy=0;" parent="1" source="78961159f06e98e8-56" edge="1">
          <mxGeometry relative="1" as="geometry">
            <mxPoint x="920" y="513" as="targetPoint"/>
          </mxGeometry>
        </mxCell>
        <mxCell id="78961159f06e98e8-56" value="ArrayTaskList" style="swimlane;html=1;fontStyle=1;align=center;verticalAlign=top;childLayout=stackLayout;horizontal=1;startSize=26;horizontalStack=0;resizeParent=1;resizeLast=0;collapsible=1;marginBottom=0;swimlaneFillColor=#ffffff;rounded=0;shadow=0;comic=0;labelBackgroundColor=none;strokeWidth=1;fillColor=#dae8fc;fontFamily=Verdana;fontSize=12;strokeColor=#6c8ebf;" parent="1" vertex="1">
          <mxGeometry x="840" y="550" width="160" height="327" as="geometry"/>
        </mxCell>
        <mxCell id="78961159f06e98e8-57" value="k:int" style="text;html=1;strokeColor=none;fillColor=none;align=left;verticalAlign=top;spacingLeft=4;spacingRight=4;whiteSpace=wrap;overflow=hidden;rotatable=0;points=[[0,0.5],[1,0.5]];portConstraint=eastwest;" parent="78961159f06e98e8-56" vertex="1">
          <mxGeometry y="26" width="160" height="26" as="geometry"/>
        </mxCell>
        <mxCell id="78961159f06e98e8-58" value="tasks:Task[]" style="text;html=1;strokeColor=none;fillColor=none;align=left;verticalAlign=top;spacingLeft=4;spacingRight=4;whiteSpace=wrap;overflow=hidden;rotatable=0;points=[[0,0.5],[1,0.5]];portConstraint=eastwest;" parent="78961159f06e98e8-56" vertex="1">
          <mxGeometry y="52" width="160" height="26" as="geometry"/>
        </mxCell>
        <mxCell id="78961159f06e98e8-64" value="" style="line;html=1;strokeWidth=1;fillColor=none;align=left;verticalAlign=middle;spacingTop=-1;spacingLeft=3;spacingRight=3;rotatable=0;labelPosition=right;points=[];portConstraint=eastwest;" parent="78961159f06e98e8-56" vertex="1">
          <mxGeometry y="78" width="160" height="8" as="geometry"/>
        </mxCell>
        <mxCell id="78961159f06e98e8-65" value="add(Task):void" style="text;html=1;strokeColor=none;fillColor=none;align=left;verticalAlign=top;spacingLeft=4;spacingRight=4;whiteSpace=wrap;overflow=hidden;rotatable=0;points=[[0,0.5],[1,0.5]];portConstraint=eastwest;" parent="78961159f06e98e8-56" vertex="1">
          <mxGeometry y="86" width="160" height="26" as="geometry"/>
        </mxCell>
        <mxCell id="78961159f06e98e8-66" value="remove(Task):boolean" style="text;html=1;strokeColor=none;fillColor=none;align=left;verticalAlign=top;spacingLeft=4;spacingRight=4;whiteSpace=wrap;overflow=hidden;rotatable=0;points=[[0,0.5],[1,0.5]];portConstraint=eastwest;" parent="78961159f06e98e8-56" vertex="1">
          <mxGeometry y="112" width="160" height="26" as="geometry"/>
        </mxCell>
        <mxCell id="78961159f06e98e8-68" value="size():int" style="text;html=1;strokeColor=none;fillColor=none;align=left;verticalAlign=top;spacingLeft=4;spacingRight=4;whiteSpace=wrap;overflow=hidden;rotatable=0;points=[[0,0.5],[1,0.5]];portConstraint=eastwest;" parent="78961159f06e98e8-56" vertex="1">
          <mxGeometry y="138" width="160" height="26" as="geometry"/>
        </mxCell>
        <mxCell id="Jl83T3s884Ppd1om0JJ5-20" value="getTask(int):Task&lt;span style=&quot;color: rgba(0 , 0 , 0 , 0) ; font-family: monospace ; font-size: 0px ; white-space: nowrap&quot;&gt;%3CmxGraphModel%3E%3Croot%3E%3CmxCell%20id%3D%220%22%2F%3E%3CmxCell%20id%3D%221%22%20parent%3D%220%22%2F%3E%3CmxCell%20id%3D%222%22%20value%3D%22size()%3Aint%22%20style%3D%22text%3Bhtml%3D1%3BstrokeColor%3Dnone%3BfillColor%3Dnone%3Balign%3Dleft%3BverticalAlign%3Dtop%3BspacingLeft%3D4%3BspacingRight%3D4%3BwhiteSpace%3Dwrap%3Boverflow%3Dhidden%3Brotatable%3D0%3Bpoints%3D%5B%5B0%2C0.5%5D%2C%5B1%2C0.5%5D%5D%3BportConstraint%3Deastwest%3B%22%20vertex%3D%221%22%20parent%3D%221%22%3E%3CmxGeometry%20x%3D%2260%22%20y%3D%22581%22%20width%3D%22160%22%20height%3D%2226%22%20as%3D%22geometry%22%2F%3E%3C%2FmxCell%3E%3C%2Froot%3E%3C%2FmxGraphModel%3E&lt;/span&gt;" style="text;html=1;strokeColor=none;fillColor=none;align=left;verticalAlign=top;spacingLeft=4;spacingRight=4;whiteSpace=wrap;overflow=hidden;rotatable=0;points=[[0,0.5],[1,0.5]];portConstraint=eastwest;" parent="78961159f06e98e8-56" vertex="1">
          <mxGeometry y="164" width="160" height="26" as="geometry"/>
        </mxCell>
        <mxCell id="Jl83T3s884Ppd1om0JJ5-21" value="equals(Object):boolean&lt;span style=&quot;color: rgba(0 , 0 , 0 , 0) ; font-family: monospace ; font-size: 0px ; white-space: nowrap&quot;&gt;%3CmxGraphModel%3E%3Croot%3E%3CmxCell%20id%3D%220%22%2F%3E%3CmxCell%20id%3D%221%22%20parent%3D%220%22%2F%3E%3CmxCell%20id%3D%222%22%20value%3D%22getTask(int)%3ATask%26lt%3Bspan%20style%3D%26quot%3Bcolor%3A%20rgba(0%20%2C%200%20%2C%200%20%2C%200)%20%3B%20font-family%3A%20monospace%20%3B%20font-size%3A%200px%20%3B%20white-space%3A%20nowrap%26quot%3B%26gt%3B%253CmxGraphModel%253E%253Croot%253E%253CmxCell%2520id%253D%25220%2522%252F%253E%253CmxCell%2520id%253D%25221%2522%2520parent%253D%25220%2522%252F%253E%253CmxCell%2520id%253D%25222%2522%2520value%253D%2522size()%253Aint%2522%2520style%253D%2522text%253Bhtml%253D1%253BstrokeColor%253Dnone%253BfillColor%253Dnone%253Balign%253Dleft%253BverticalAlign%253Dtop%253BspacingLeft%253D4%253BspacingRight%253D4%253BwhiteSpace%253Dwrap%253Boverflow%253Dhidden%253Brotatable%253D0%253Bpoints%253D%255B%255B0%252C0.5%255D%252C%255B1%252C0.5%255D%255D%253BportConstraint%253Deastwest%253B%2522%2520vertex%253D%25221%2522%2520parent%253D%25221%2522%253E%253CmxGeometry%2520x%253D%252260%2522%2520y%253D%2522581%2522%2520width%253D%2522160%2522%2520height%253D%252226%2522%2520as%253D%2522geometry%2522%252F%253E%253C%252FmxCell%253E%253C%252Froot%253E%253C%252FmxGraphModel%253E%26lt%3B%2Fspan%26gt%3B%22%20style%3D%22text%3Bhtml%3D1%3BstrokeColor%3Dnone%3BfillColor%3Dnone%3Balign%3Dleft%3BverticalAlign%3Dtop%3BspacingLeft%3D4%3BspacingRight%3D4%3BwhiteSpace%3Dwrap%3Boverflow%3Dhidden%3Brotatable%3D0%3Bpoints%3D%5B%5B0%2C0.5%5D%2C%5B1%2C0.5%5D%5D%3BportConstraint%3Deastwest%3B%22%20vertex%3D%221%22%20parent%3D%221%22%3E%3CmxGeometry%20x%3D%2260%22%20y%3D%22607%22%20width%3D%22160%22%20height%3D%2226%22%20as%3D%22geometry%22%2F%3E%3C%2FmxCell%3E%3C%2Froot%3E%3C%2FmxGraphModel%3E&lt;/span&gt;" style="text;html=1;strokeColor=none;fillColor=none;align=left;verticalAlign=top;spacingLeft=4;spacingRight=4;whiteSpace=wrap;overflow=hidden;rotatable=0;points=[[0,0.5],[1,0.5]];portConstraint=eastwest;" parent="78961159f06e98e8-56" vertex="1">
          <mxGeometry y="190" width="160" height="26" as="geometry"/>
        </mxCell>
        <mxCell id="Jl83T3s884Ppd1om0JJ5-22" value="hashCode():int" style="text;html=1;strokeColor=none;fillColor=none;align=left;verticalAlign=top;spacingLeft=4;spacingRight=4;whiteSpace=wrap;overflow=hidden;rotatable=0;points=[[0,0.5],[1,0.5]];portConstraint=eastwest;" parent="78961159f06e98e8-56" vertex="1">
          <mxGeometry y="216" width="160" height="26" as="geometry"/>
        </mxCell>
        <mxCell id="ICaOzD0aiAJlALt-W4pU-1" value="&lt;font style=&quot;vertical-align: inherit&quot;&gt;&lt;font style=&quot;vertical-align: inherit&quot;&gt;clone():ArrayTaskList&lt;/font&gt;&lt;/font&gt;" style="text;html=1;strokeColor=none;fillColor=none;align=left;verticalAlign=top;spacingLeft=4;spacingRight=4;whiteSpace=wrap;overflow=hidden;rotatable=0;points=[[0,0.5],[1,0.5]];portConstraint=eastwest;" parent="78961159f06e98e8-56" vertex="1">
          <mxGeometry y="242" width="160" height="26" as="geometry"/>
        </mxCell>
        <mxCell id="ICaOzD0aiAJlALt-W4pU-2" value="&lt;font style=&quot;vertical-align: inherit&quot;&gt;&lt;font style=&quot;vertical-align: inherit&quot;&gt;&lt;font style=&quot;vertical-align: inherit&quot;&gt;&lt;font style=&quot;vertical-align: inherit&quot;&gt;&lt;font style=&quot;vertical-align: inherit&quot;&gt;&lt;font style=&quot;vertical-align: inherit&quot;&gt;toString():String&lt;/font&gt;&lt;/font&gt;&lt;/font&gt;&lt;/font&gt;&lt;/font&gt;&lt;/font&gt;" style="text;html=1;strokeColor=none;fillColor=none;align=left;verticalAlign=top;spacingLeft=4;spacingRight=4;whiteSpace=wrap;overflow=hidden;rotatable=0;points=[[0,0.5],[1,0.5]];portConstraint=eastwest;" parent="78961159f06e98e8-56" vertex="1">
          <mxGeometry y="268" width="160" height="26" as="geometry"/>
        </mxCell>
        <mxCell id="ICaOzD0aiAJlALt-W4pU-3" value="&lt;font style=&quot;vertical-align: inherit&quot;&gt;&lt;font style=&quot;vertical-align: inherit&quot;&gt;&lt;font style=&quot;vertical-align: inherit&quot;&gt;&lt;font style=&quot;vertical-align: inherit&quot;&gt;&lt;font style=&quot;vertical-align: inherit&quot;&gt;&lt;font style=&quot;vertical-align: inherit&quot;&gt;&lt;font style=&quot;vertical-align: inherit&quot;&gt;&lt;font style=&quot;vertical-align: inherit&quot;&gt;getStream():Stream&amp;lt;Task&amp;gt;&lt;/font&gt;&lt;/font&gt;&lt;/font&gt;&lt;/font&gt;&lt;/font&gt;&lt;/font&gt;&lt;/font&gt;&lt;/font&gt;" style="text;html=1;strokeColor=none;fillColor=none;align=left;verticalAlign=top;spacingLeft=4;spacingRight=4;whiteSpace=wrap;overflow=hidden;rotatable=0;points=[[0,0.5],[1,0.5]];portConstraint=eastwest;" parent="78961159f06e98e8-56" vertex="1">
          <mxGeometry y="294" width="160" height="26" as="geometry"/>
        </mxCell>
        <mxCell id="Jl83T3s884Ppd1om0JJ5-13" value="&lt;h1&gt;Package model&lt;/h1&gt;" style="text;html=1;strokeColor=#6c8ebf;fillColor=#dae8fc;spacing=5;spacingTop=-20;whiteSpace=wrap;overflow=hidden;rounded=0;glass=0;" parent="1" vertex="1">
          <mxGeometry x="420" y="260" width="190" height="40" as="geometry"/>
        </mxCell>
        <mxCell id="ICaOzD0aiAJlALt-W4pU-19" style="edgeStyle=orthogonalEdgeStyle;rounded=0;orthogonalLoop=1;jettySize=auto;html=1;entryX=0.756;entryY=1.192;entryDx=0;entryDy=0;entryPerimeter=0;" parent="1" source="ICaOzD0aiAJlALt-W4pU-4" target="Jl83T3s884Ppd1om0JJ5-19" edge="1">
          <mxGeometry relative="1" as="geometry">
            <Array as="points">
              <mxPoint x="1120" y="530"/>
              <mxPoint x="961" y="530"/>
            </Array>
          </mxGeometry>
        </mxCell>
        <mxCell id="ICaOzD0aiAJlALt-W4pU-4" value="LinkedTaskList" style="swimlane;html=1;fontStyle=1;align=center;verticalAlign=top;childLayout=stackLayout;horizontal=1;startSize=26;horizontalStack=0;resizeParent=1;resizeLast=0;collapsible=1;marginBottom=0;swimlaneFillColor=#ffffff;rounded=0;shadow=0;comic=0;labelBackgroundColor=none;strokeWidth=1;fillColor=#dae8fc;fontFamily=Verdana;fontSize=12;strokeColor=#6c8ebf;" parent="1" vertex="1">
          <mxGeometry x="1040" y="550" width="160" height="327" as="geometry"/>
        </mxCell>
        <mxCell id="ICaOzD0aiAJlALt-W4pU-5" value="head:Node" style="text;html=1;strokeColor=none;fillColor=none;align=left;verticalAlign=top;spacingLeft=4;spacingRight=4;whiteSpace=wrap;overflow=hidden;rotatable=0;points=[[0,0.5],[1,0.5]];portConstraint=eastwest;" parent="ICaOzD0aiAJlALt-W4pU-4" vertex="1">
          <mxGeometry y="26" width="160" height="26" as="geometry"/>
        </mxCell>
        <mxCell id="ICaOzD0aiAJlALt-W4pU-7" value="" style="line;html=1;strokeWidth=1;fillColor=none;align=left;verticalAlign=middle;spacingTop=-1;spacingLeft=3;spacingRight=3;rotatable=0;labelPosition=right;points=[];portConstraint=eastwest;" parent="ICaOzD0aiAJlALt-W4pU-4" vertex="1">
          <mxGeometry y="52" width="160" height="8" as="geometry"/>
        </mxCell>
        <mxCell id="ICaOzD0aiAJlALt-W4pU-8" value="add(Task):void" style="text;html=1;strokeColor=none;fillColor=none;align=left;verticalAlign=top;spacingLeft=4;spacingRight=4;whiteSpace=wrap;overflow=hidden;rotatable=0;points=[[0,0.5],[1,0.5]];portConstraint=eastwest;" parent="ICaOzD0aiAJlALt-W4pU-4" vertex="1">
          <mxGeometry y="60" width="160" height="26" as="geometry"/>
        </mxCell>
        <mxCell id="ICaOzD0aiAJlALt-W4pU-9" value="remove(Task):boolean" style="text;html=1;strokeColor=none;fillColor=none;align=left;verticalAlign=top;spacingLeft=4;spacingRight=4;whiteSpace=wrap;overflow=hidden;rotatable=0;points=[[0,0.5],[1,0.5]];portConstraint=eastwest;" parent="ICaOzD0aiAJlALt-W4pU-4" vertex="1">
          <mxGeometry y="86" width="160" height="26" as="geometry"/>
        </mxCell>
        <mxCell id="ICaOzD0aiAJlALt-W4pU-10" value="size():int" style="text;html=1;strokeColor=none;fillColor=none;align=left;verticalAlign=top;spacingLeft=4;spacingRight=4;whiteSpace=wrap;overflow=hidden;rotatable=0;points=[[0,0.5],[1,0.5]];portConstraint=eastwest;" parent="ICaOzD0aiAJlALt-W4pU-4" vertex="1">
          <mxGeometry y="112" width="160" height="26" as="geometry"/>
        </mxCell>
        <mxCell id="ICaOzD0aiAJlALt-W4pU-11" value="getTask(int):Task&lt;span style=&quot;color: rgba(0 , 0 , 0 , 0) ; font-family: monospace ; font-size: 0px ; white-space: nowrap&quot;&gt;%3CmxGraphModel%3E%3Croot%3E%3CmxCell%20id%3D%220%22%2F%3E%3CmxCell%20id%3D%221%22%20parent%3D%220%22%2F%3E%3CmxCell%20id%3D%222%22%20value%3D%22size()%3Aint%22%20style%3D%22text%3Bhtml%3D1%3BstrokeColor%3Dnone%3BfillColor%3Dnone%3Balign%3Dleft%3BverticalAlign%3Dtop%3BspacingLeft%3D4%3BspacingRight%3D4%3BwhiteSpace%3Dwrap%3Boverflow%3Dhidden%3Brotatable%3D0%3Bpoints%3D%5B%5B0%2C0.5%5D%2C%5B1%2C0.5%5D%5D%3BportConstraint%3Deastwest%3B%22%20vertex%3D%221%22%20parent%3D%221%22%3E%3CmxGeometry%20x%3D%2260%22%20y%3D%22581%22%20width%3D%22160%22%20height%3D%2226%22%20as%3D%22geometry%22%2F%3E%3C%2FmxCell%3E%3C%2Froot%3E%3C%2FmxGraphModel%3E&lt;/span&gt;" style="text;html=1;strokeColor=none;fillColor=none;align=left;verticalAlign=top;spacingLeft=4;spacingRight=4;whiteSpace=wrap;overflow=hidden;rotatable=0;points=[[0,0.5],[1,0.5]];portConstraint=eastwest;" parent="ICaOzD0aiAJlALt-W4pU-4" vertex="1">
          <mxGeometry y="138" width="160" height="26" as="geometry"/>
        </mxCell>
        <mxCell id="ICaOzD0aiAJlALt-W4pU-12" value="equals(Object):boolean&lt;span style=&quot;color: rgba(0 , 0 , 0 , 0) ; font-family: monospace ; font-size: 0px ; white-space: nowrap&quot;&gt;%3CmxGraphModel%3E%3Croot%3E%3CmxCell%20id%3D%220%22%2F%3E%3CmxCell%20id%3D%221%22%20parent%3D%220%22%2F%3E%3CmxCell%20id%3D%222%22%20value%3D%22getTask(int)%3ATask%26lt%3Bspan%20style%3D%26quot%3Bcolor%3A%20rgba(0%20%2C%200%20%2C%200%20%2C%200)%20%3B%20font-family%3A%20monospace%20%3B%20font-size%3A%200px%20%3B%20white-space%3A%20nowrap%26quot%3B%26gt%3B%253CmxGraphModel%253E%253Croot%253E%253CmxCell%2520id%253D%25220%2522%252F%253E%253CmxCell%2520id%253D%25221%2522%2520parent%253D%25220%2522%252F%253E%253CmxCell%2520id%253D%25222%2522%2520value%253D%2522size()%253Aint%2522%2520style%253D%2522text%253Bhtml%253D1%253BstrokeColor%253Dnone%253BfillColor%253Dnone%253Balign%253Dleft%253BverticalAlign%253Dtop%253BspacingLeft%253D4%253BspacingRight%253D4%253BwhiteSpace%253Dwrap%253Boverflow%253Dhidden%253Brotatable%253D0%253Bpoints%253D%255B%255B0%252C0.5%255D%252C%255B1%252C0.5%255D%255D%253BportConstraint%253Deastwest%253B%2522%2520vertex%253D%25221%2522%2520parent%253D%25221%2522%253E%253CmxGeometry%2520x%253D%252260%2522%2520y%253D%2522581%2522%2520width%253D%2522160%2522%2520height%253D%252226%2522%2520as%253D%2522geometry%2522%252F%253E%253C%252FmxCell%253E%253C%252Froot%253E%253C%252FmxGraphModel%253E%26lt%3B%2Fspan%26gt%3B%22%20style%3D%22text%3Bhtml%3D1%3BstrokeColor%3Dnone%3BfillColor%3Dnone%3Balign%3Dleft%3BverticalAlign%3Dtop%3BspacingLeft%3D4%3BspacingRight%3D4%3BwhiteSpace%3Dwrap%3Boverflow%3Dhidden%3Brotatable%3D0%3Bpoints%3D%5B%5B0%2C0.5%5D%2C%5B1%2C0.5%5D%5D%3BportConstraint%3Deastwest%3B%22%20vertex%3D%221%22%20parent%3D%221%22%3E%3CmxGeometry%20x%3D%2260%22%20y%3D%22607%22%20width%3D%22160%22%20height%3D%2226%22%20as%3D%22geometry%22%2F%3E%3C%2FmxCell%3E%3C%2Froot%3E%3C%2FmxGraphModel%3E&lt;/span&gt;" style="text;html=1;strokeColor=none;fillColor=none;align=left;verticalAlign=top;spacingLeft=4;spacingRight=4;whiteSpace=wrap;overflow=hidden;rotatable=0;points=[[0,0.5],[1,0.5]];portConstraint=eastwest;" parent="ICaOzD0aiAJlALt-W4pU-4" vertex="1">
          <mxGeometry y="164" width="160" height="26" as="geometry"/>
        </mxCell>
        <mxCell id="ICaOzD0aiAJlALt-W4pU-13" value="hashCode():int" style="text;html=1;strokeColor=none;fillColor=none;align=left;verticalAlign=top;spacingLeft=4;spacingRight=4;whiteSpace=wrap;overflow=hidden;rotatable=0;points=[[0,0.5],[1,0.5]];portConstraint=eastwest;" parent="ICaOzD0aiAJlALt-W4pU-4" vertex="1">
          <mxGeometry y="190" width="160" height="26" as="geometry"/>
        </mxCell>
        <mxCell id="ICaOzD0aiAJlALt-W4pU-14" value="&lt;font style=&quot;vertical-align: inherit&quot;&gt;&lt;font style=&quot;vertical-align: inherit&quot;&gt;clone():ArrayTaskList&lt;/font&gt;&lt;/font&gt;" style="text;html=1;strokeColor=none;fillColor=none;align=left;verticalAlign=top;spacingLeft=4;spacingRight=4;whiteSpace=wrap;overflow=hidden;rotatable=0;points=[[0,0.5],[1,0.5]];portConstraint=eastwest;" parent="ICaOzD0aiAJlALt-W4pU-4" vertex="1">
          <mxGeometry y="216" width="160" height="26" as="geometry"/>
        </mxCell>
        <mxCell id="ICaOzD0aiAJlALt-W4pU-15" value="&lt;font style=&quot;vertical-align: inherit&quot;&gt;&lt;font style=&quot;vertical-align: inherit&quot;&gt;&lt;font style=&quot;vertical-align: inherit&quot;&gt;&lt;font style=&quot;vertical-align: inherit&quot;&gt;&lt;font style=&quot;vertical-align: inherit&quot;&gt;&lt;font style=&quot;vertical-align: inherit&quot;&gt;toString():String&lt;/font&gt;&lt;/font&gt;&lt;/font&gt;&lt;/font&gt;&lt;/font&gt;&lt;/font&gt;" style="text;html=1;strokeColor=none;fillColor=none;align=left;verticalAlign=top;spacingLeft=4;spacingRight=4;whiteSpace=wrap;overflow=hidden;rotatable=0;points=[[0,0.5],[1,0.5]];portConstraint=eastwest;" parent="ICaOzD0aiAJlALt-W4pU-4" vertex="1">
          <mxGeometry y="242" width="160" height="26" as="geometry"/>
        </mxCell>
        <mxCell id="ICaOzD0aiAJlALt-W4pU-16" value="&lt;font style=&quot;vertical-align: inherit&quot;&gt;&lt;font style=&quot;vertical-align: inherit&quot;&gt;&lt;font style=&quot;vertical-align: inherit&quot;&gt;&lt;font style=&quot;vertical-align: inherit&quot;&gt;&lt;font style=&quot;vertical-align: inherit&quot;&gt;&lt;font style=&quot;vertical-align: inherit&quot;&gt;&lt;font style=&quot;vertical-align: inherit&quot;&gt;&lt;font style=&quot;vertical-align: inherit&quot;&gt;getStream():Stream&amp;lt;Task&amp;gt;&lt;/font&gt;&lt;/font&gt;&lt;/font&gt;&lt;/font&gt;&lt;/font&gt;&lt;/font&gt;&lt;/font&gt;&lt;/font&gt;" style="text;html=1;strokeColor=none;fillColor=none;align=left;verticalAlign=top;spacingLeft=4;spacingRight=4;whiteSpace=wrap;overflow=hidden;rotatable=0;points=[[0,0.5],[1,0.5]];portConstraint=eastwest;" parent="ICaOzD0aiAJlALt-W4pU-4" vertex="1">
          <mxGeometry y="268" width="160" height="26" as="geometry"/>
        </mxCell>
        <mxCell id="ICaOzD0aiAJlALt-W4pU-33" value="Node" style="swimlane;html=1;fontStyle=1;align=center;verticalAlign=top;childLayout=stackLayout;horizontal=1;startSize=26;horizontalStack=0;resizeParent=1;resizeLast=0;collapsible=1;marginBottom=0;swimlaneFillColor=#ffffff;rounded=0;shadow=0;comic=0;labelBackgroundColor=none;strokeWidth=1;fontFamily=Verdana;fontSize=12;fillColor=#dae8fc;strokeColor=#6c8ebf;" parent="1" vertex="1">
          <mxGeometry x="1040" y="920" width="160" height="80" as="geometry"/>
        </mxCell>
        <mxCell id="ICaOzD0aiAJlALt-W4pU-34" value="next:Node" style="text;html=1;strokeColor=none;fillColor=none;align=left;verticalAlign=top;spacingLeft=4;spacingRight=4;whiteSpace=wrap;overflow=hidden;rotatable=0;points=[[0,0.5],[1,0.5]];portConstraint=eastwest;" parent="ICaOzD0aiAJlALt-W4pU-33" vertex="1">
          <mxGeometry y="26" width="160" height="26" as="geometry"/>
        </mxCell>
        <mxCell id="ICaOzD0aiAJlALt-W4pU-45" value="task:Task" style="text;html=1;strokeColor=none;fillColor=none;align=left;verticalAlign=top;spacingLeft=4;spacingRight=4;whiteSpace=wrap;overflow=hidden;rotatable=0;points=[[0,0.5],[1,0.5]];portConstraint=eastwest;" parent="ICaOzD0aiAJlALt-W4pU-33" vertex="1">
          <mxGeometry y="52" width="160" height="26" as="geometry"/>
        </mxCell>
        <mxCell id="ICaOzD0aiAJlALt-W4pU-46" value="" style="endArrow=none;html=1;exitX=0.5;exitY=0;exitDx=0;exitDy=0;entryX=0.5;entryY=1;entryDx=0;entryDy=0;" parent="1" source="ICaOzD0aiAJlALt-W4pU-33" target="ICaOzD0aiAJlALt-W4pU-4" edge="1">
          <mxGeometry width="50" height="50" relative="1" as="geometry">
            <mxPoint x="340" y="960" as="sourcePoint"/>
            <mxPoint x="390" y="910" as="targetPoint"/>
          </mxGeometry>
        </mxCell>
        <mxCell id="ICaOzD0aiAJlALt-W4pU-48" value="Task" style="swimlane;html=1;fontStyle=1;align=center;verticalAlign=top;childLayout=stackLayout;horizontal=1;startSize=26;horizontalStack=0;resizeParent=1;resizeLast=0;collapsible=1;marginBottom=0;swimlaneFillColor=#ffffff;rounded=0;shadow=0;comic=0;labelBackgroundColor=none;strokeWidth=1;fillColor=#dae8fc;fontFamily=Verdana;fontSize=12;strokeColor=#6c8ebf;" parent="1" vertex="1">
          <mxGeometry x="80" y="240" width="280" height="800" as="geometry"/>
        </mxCell>
        <mxCell id="ICaOzD0aiAJlALt-W4pU-49" value="title:String" style="text;html=1;strokeColor=none;fillColor=none;align=left;verticalAlign=top;spacingLeft=4;spacingRight=4;whiteSpace=wrap;overflow=hidden;rotatable=0;points=[[0,0.5],[1,0.5]];portConstraint=eastwest;" parent="ICaOzD0aiAJlALt-W4pU-48" vertex="1">
          <mxGeometry y="26" width="280" height="24" as="geometry"/>
        </mxCell>
        <mxCell id="ICaOzD0aiAJlALt-W4pU-62" value="active:boolean" style="text;html=1;strokeColor=none;fillColor=none;align=left;verticalAlign=top;spacingLeft=4;spacingRight=4;whiteSpace=wrap;overflow=hidden;rotatable=0;points=[[0,0.5],[1,0.5]];portConstraint=eastwest;" parent="ICaOzD0aiAJlALt-W4pU-48" vertex="1">
          <mxGeometry y="50" width="280" height="24" as="geometry"/>
        </mxCell>
        <mxCell id="ICaOzD0aiAJlALt-W4pU-61" value="repeated:boolean&lt;span style=&quot;color: rgba(0 , 0 , 0 , 0) ; font-family: monospace ; font-size: 0px ; white-space: nowrap&quot;&gt;%3CmxGraphModel%3E%3Croot%3E%3CmxCell%20id%3D%220%22%2F%3E%3CmxCell%20id%3D%221%22%20parent%3D%220%22%2F%3E%3CmxCell%20id%3D%222%22%20value%3D%22active%3Aboolean%22%20style%3D%22text%3Bhtml%3D1%3BstrokeColor%3Dnone%3BfillColor%3Dnone%3Balign%3Dleft%3BverticalAlign%3Dtop%3BspacingLeft%3D4%3BspacingRight%3D4%3BwhiteSpace%3Dwrap%3Boverflow%3Dhidden%3Brotatable%3D0%3Bpoints%3D%5B%5B0%2C0.5%5D%2C%5B1%2C0.5%5D%5D%3BportConstraint%3Deastwest%3B%22%20vertex%3D%221%22%20parent%3D%221%22%3E%3CmxGeometry%20x%3D%22610%22%20y%3D%22459.5%22%20width%3D%22160%22%20height%3D%2224%22%20as%3D%22geometry%22%2F%3E%3C%2FmxCell%3E%3C%2Froot%3E%3C%2FmxGraphModel%3E&lt;/span&gt;" style="text;html=1;strokeColor=none;fillColor=none;align=left;verticalAlign=top;spacingLeft=4;spacingRight=4;whiteSpace=wrap;overflow=hidden;rotatable=0;points=[[0,0.5],[1,0.5]];portConstraint=eastwest;" parent="ICaOzD0aiAJlALt-W4pU-48" vertex="1">
          <mxGeometry y="74" width="280" height="24" as="geometry"/>
        </mxCell>
        <mxCell id="ICaOzD0aiAJlALt-W4pU-63" value="time:LocalDateTime" style="text;html=1;strokeColor=none;fillColor=none;align=left;verticalAlign=top;spacingLeft=4;spacingRight=4;whiteSpace=wrap;overflow=hidden;rotatable=0;points=[[0,0.5],[1,0.5]];portConstraint=eastwest;" parent="ICaOzD0aiAJlALt-W4pU-48" vertex="1">
          <mxGeometry y="98" width="280" height="24" as="geometry"/>
        </mxCell>
        <mxCell id="ICaOzD0aiAJlALt-W4pU-64" value="startTime:LocalDateTime" style="text;html=1;strokeColor=none;fillColor=none;align=left;verticalAlign=top;spacingLeft=4;spacingRight=4;whiteSpace=wrap;overflow=hidden;rotatable=0;points=[[0,0.5],[1,0.5]];portConstraint=eastwest;" parent="ICaOzD0aiAJlALt-W4pU-48" vertex="1">
          <mxGeometry y="122" width="280" height="24" as="geometry"/>
        </mxCell>
        <mxCell id="ICaOzD0aiAJlALt-W4pU-65" value="endTime:LocalDateTime" style="text;html=1;strokeColor=none;fillColor=none;align=left;verticalAlign=top;spacingLeft=4;spacingRight=4;whiteSpace=wrap;overflow=hidden;rotatable=0;points=[[0,0.5],[1,0.5]];portConstraint=eastwest;" parent="ICaOzD0aiAJlALt-W4pU-48" vertex="1">
          <mxGeometry y="146" width="280" height="24" as="geometry"/>
        </mxCell>
        <mxCell id="ICaOzD0aiAJlALt-W4pU-66" value="repeatInterval:int" style="text;html=1;strokeColor=none;fillColor=none;align=left;verticalAlign=top;spacingLeft=4;spacingRight=4;whiteSpace=wrap;overflow=hidden;rotatable=0;points=[[0,0.5],[1,0.5]];portConstraint=eastwest;" parent="ICaOzD0aiAJlALt-W4pU-48" vertex="1">
          <mxGeometry y="170" width="280" height="24" as="geometry"/>
        </mxCell>
        <mxCell id="ICaOzD0aiAJlALt-W4pU-50" value="" style="line;html=1;strokeWidth=1;fillColor=none;align=left;verticalAlign=middle;spacingTop=-1;spacingLeft=3;spacingRight=3;rotatable=0;labelPosition=right;points=[];portConstraint=eastwest;" parent="ICaOzD0aiAJlALt-W4pU-48" vertex="1">
          <mxGeometry y="194" width="280" height="8" as="geometry"/>
        </mxCell>
        <mxCell id="ICaOzD0aiAJlALt-W4pU-68" value="&lt;font style=&quot;vertical-align: inherit&quot;&gt;&lt;font style=&quot;vertical-align: inherit&quot;&gt;&lt;font style=&quot;vertical-align: inherit&quot;&gt;&lt;font style=&quot;vertical-align: inherit&quot;&gt;&lt;font style=&quot;vertical-align: inherit&quot;&gt;&lt;font style=&quot;vertical-align: inherit&quot;&gt;Task(String, LocalDateTime)&lt;/font&gt;&lt;/font&gt;&lt;/font&gt;&lt;/font&gt;&lt;/font&gt;&lt;/font&gt;" style="text;html=1;strokeColor=none;fillColor=none;align=left;verticalAlign=top;spacingLeft=4;spacingRight=4;whiteSpace=wrap;overflow=hidden;rotatable=0;points=[[0,0.5],[1,0.5]];portConstraint=eastwest;" parent="ICaOzD0aiAJlALt-W4pU-48" vertex="1">
          <mxGeometry y="202" width="280" height="26" as="geometry"/>
        </mxCell>
        <mxCell id="ICaOzD0aiAJlALt-W4pU-69" value="&lt;font style=&quot;vertical-align: inherit&quot;&gt;&lt;font style=&quot;vertical-align: inherit&quot;&gt;&lt;font style=&quot;vertical-align: inherit&quot;&gt;&lt;font style=&quot;vertical-align: inherit&quot;&gt;&lt;font style=&quot;vertical-align: inherit&quot;&gt;&lt;font style=&quot;vertical-align: inherit&quot;&gt;Task(String, LocalDateTime, LocalDateTime, int)&lt;/font&gt;&lt;/font&gt;&lt;/font&gt;&lt;/font&gt;&lt;/font&gt;&lt;/font&gt;" style="text;html=1;strokeColor=none;fillColor=none;align=left;verticalAlign=top;spacingLeft=4;spacingRight=4;whiteSpace=wrap;overflow=hidden;rotatable=0;points=[[0,0.5],[1,0.5]];portConstraint=eastwest;" parent="ICaOzD0aiAJlALt-W4pU-48" vertex="1">
          <mxGeometry y="228" width="280" height="32" as="geometry"/>
        </mxCell>
        <mxCell id="ICaOzD0aiAJlALt-W4pU-67" value="" style="line;html=1;strokeWidth=1;fillColor=none;align=left;verticalAlign=middle;spacingTop=-1;spacingLeft=3;spacingRight=3;rotatable=0;labelPosition=right;points=[];portConstraint=eastwest;" parent="ICaOzD0aiAJlALt-W4pU-48" vertex="1">
          <mxGeometry y="260" width="280" height="8" as="geometry"/>
        </mxCell>
        <mxCell id="2RO7b1EySUIn5wooA4Gc-1" value="&lt;font style=&quot;vertical-align: inherit&quot;&gt;&lt;font style=&quot;vertical-align: inherit&quot;&gt;&lt;font style=&quot;vertical-align: inherit&quot;&gt;&lt;font style=&quot;vertical-align: inherit&quot;&gt;&lt;font style=&quot;vertical-align: inherit&quot;&gt;&lt;font style=&quot;vertical-align: inherit&quot;&gt;getTitle():String&lt;/font&gt;&lt;/font&gt;&lt;/font&gt;&lt;/font&gt;&lt;/font&gt;&lt;/font&gt;" style="text;html=1;strokeColor=none;fillColor=none;align=left;verticalAlign=top;spacingLeft=4;spacingRight=4;whiteSpace=wrap;overflow=hidden;rotatable=0;points=[[0,0.5],[1,0.5]];portConstraint=eastwest;" parent="ICaOzD0aiAJlALt-W4pU-48" vertex="1">
          <mxGeometry y="268" width="280" height="32" as="geometry"/>
        </mxCell>
        <mxCell id="2RO7b1EySUIn5wooA4Gc-3" value="&lt;font style=&quot;vertical-align: inherit&quot;&gt;&lt;font style=&quot;vertical-align: inherit&quot;&gt;&lt;font style=&quot;vertical-align: inherit&quot;&gt;&lt;font style=&quot;vertical-align: inherit&quot;&gt;&lt;font style=&quot;vertical-align: inherit&quot;&gt;&lt;font style=&quot;vertical-align: inherit&quot;&gt;setTitle(String):void&lt;/font&gt;&lt;/font&gt;&lt;/font&gt;&lt;/font&gt;&lt;/font&gt;&lt;/font&gt;" style="text;html=1;strokeColor=none;fillColor=none;align=left;verticalAlign=top;spacingLeft=4;spacingRight=4;whiteSpace=wrap;overflow=hidden;rotatable=0;points=[[0,0.5],[1,0.5]];portConstraint=eastwest;" parent="ICaOzD0aiAJlALt-W4pU-48" vertex="1">
          <mxGeometry y="300" width="280" height="32" as="geometry"/>
        </mxCell>
        <mxCell id="2RO7b1EySUIn5wooA4Gc-4" value="&lt;font style=&quot;vertical-align: inherit&quot;&gt;&lt;font style=&quot;vertical-align: inherit&quot;&gt;&lt;font style=&quot;vertical-align: inherit&quot;&gt;&lt;font style=&quot;vertical-align: inherit&quot;&gt;&lt;font style=&quot;vertical-align: inherit&quot;&gt;&lt;font style=&quot;vertical-align: inherit&quot;&gt;isActive():boolean&lt;/font&gt;&lt;/font&gt;&lt;/font&gt;&lt;/font&gt;&lt;/font&gt;&lt;/font&gt;" style="text;html=1;strokeColor=none;fillColor=none;align=left;verticalAlign=top;spacingLeft=4;spacingRight=4;whiteSpace=wrap;overflow=hidden;rotatable=0;points=[[0,0.5],[1,0.5]];portConstraint=eastwest;" parent="ICaOzD0aiAJlALt-W4pU-48" vertex="1">
          <mxGeometry y="332" width="280" height="32" as="geometry"/>
        </mxCell>
        <mxCell id="2RO7b1EySUIn5wooA4Gc-5" value="&lt;font style=&quot;vertical-align: inherit&quot;&gt;&lt;font style=&quot;vertical-align: inherit&quot;&gt;&lt;font style=&quot;vertical-align: inherit&quot;&gt;&lt;font style=&quot;vertical-align: inherit&quot;&gt;&lt;font style=&quot;vertical-align: inherit&quot;&gt;&lt;font style=&quot;vertical-align: inherit&quot;&gt;setActive(boolean):void&lt;/font&gt;&lt;/font&gt;&lt;/font&gt;&lt;/font&gt;&lt;/font&gt;&lt;/font&gt;" style="text;html=1;strokeColor=none;fillColor=none;align=left;verticalAlign=top;spacingLeft=4;spacingRight=4;whiteSpace=wrap;overflow=hidden;rotatable=0;points=[[0,0.5],[1,0.5]];portConstraint=eastwest;" parent="ICaOzD0aiAJlALt-W4pU-48" vertex="1">
          <mxGeometry y="364" width="280" height="32" as="geometry"/>
        </mxCell>
        <mxCell id="2RO7b1EySUIn5wooA4Gc-12" value="&lt;font style=&quot;vertical-align: inherit&quot;&gt;&lt;font style=&quot;vertical-align: inherit&quot;&gt;&lt;font style=&quot;vertical-align: inherit&quot;&gt;&lt;font style=&quot;vertical-align: inherit&quot;&gt;&lt;font style=&quot;vertical-align: inherit&quot;&gt;&lt;font style=&quot;vertical-align: inherit&quot;&gt;isRepeated():boolean&lt;/font&gt;&lt;/font&gt;&lt;/font&gt;&lt;/font&gt;&lt;/font&gt;&lt;/font&gt;" style="text;html=1;strokeColor=none;fillColor=none;align=left;verticalAlign=top;spacingLeft=4;spacingRight=4;whiteSpace=wrap;overflow=hidden;rotatable=0;points=[[0,0.5],[1,0.5]];portConstraint=eastwest;" parent="ICaOzD0aiAJlALt-W4pU-48" vertex="1">
          <mxGeometry y="396" width="280" height="32" as="geometry"/>
        </mxCell>
        <mxCell id="2RO7b1EySUIn5wooA4Gc-6" value="&lt;font style=&quot;vertical-align: inherit&quot;&gt;&lt;font style=&quot;vertical-align: inherit&quot;&gt;&lt;font style=&quot;vertical-align: inherit&quot;&gt;&lt;font style=&quot;vertical-align: inherit&quot;&gt;&lt;font style=&quot;vertical-align: inherit&quot;&gt;&lt;font style=&quot;vertical-align: inherit&quot;&gt;getTime():LocalDateTime&lt;/font&gt;&lt;/font&gt;&lt;/font&gt;&lt;/font&gt;&lt;/font&gt;&lt;/font&gt;" style="text;html=1;strokeColor=none;fillColor=none;align=left;verticalAlign=top;spacingLeft=4;spacingRight=4;whiteSpace=wrap;overflow=hidden;rotatable=0;points=[[0,0.5],[1,0.5]];portConstraint=eastwest;" parent="ICaOzD0aiAJlALt-W4pU-48" vertex="1">
          <mxGeometry y="428" width="280" height="32" as="geometry"/>
        </mxCell>
        <mxCell id="2RO7b1EySUIn5wooA4Gc-7" value="setTime(LocalDateTime):void" style="text;html=1;strokeColor=none;fillColor=none;align=left;verticalAlign=top;spacingLeft=4;spacingRight=4;whiteSpace=wrap;overflow=hidden;rotatable=0;points=[[0,0.5],[1,0.5]];portConstraint=eastwest;" parent="ICaOzD0aiAJlALt-W4pU-48" vertex="1">
          <mxGeometry y="460" width="280" height="32" as="geometry"/>
        </mxCell>
        <mxCell id="2RO7b1EySUIn5wooA4Gc-11" value="setTime(LocalDateTime, LocalDateTime, int):void" style="text;html=1;strokeColor=none;fillColor=none;align=left;verticalAlign=top;spacingLeft=4;spacingRight=4;whiteSpace=wrap;overflow=hidden;rotatable=0;points=[[0,0.5],[1,0.5]];portConstraint=eastwest;" parent="ICaOzD0aiAJlALt-W4pU-48" vertex="1">
          <mxGeometry y="492" width="280" height="28" as="geometry"/>
        </mxCell>
        <mxCell id="2RO7b1EySUIn5wooA4Gc-8" value="getStartTime():LocalDateTime" style="text;html=1;strokeColor=none;fillColor=none;align=left;verticalAlign=top;spacingLeft=4;spacingRight=4;whiteSpace=wrap;overflow=hidden;rotatable=0;points=[[0,0.5],[1,0.5]];portConstraint=eastwest;" parent="ICaOzD0aiAJlALt-W4pU-48" vertex="1">
          <mxGeometry y="520" width="280" height="32" as="geometry"/>
        </mxCell>
        <mxCell id="2RO7b1EySUIn5wooA4Gc-9" value="getEndTime():LocalDateTime" style="text;html=1;strokeColor=none;fillColor=none;align=left;verticalAlign=top;spacingLeft=4;spacingRight=4;whiteSpace=wrap;overflow=hidden;rotatable=0;points=[[0,0.5],[1,0.5]];portConstraint=eastwest;" parent="ICaOzD0aiAJlALt-W4pU-48" vertex="1">
          <mxGeometry y="552" width="280" height="32" as="geometry"/>
        </mxCell>
        <mxCell id="2RO7b1EySUIn5wooA4Gc-10" value="getRepeatInterval():int" style="text;html=1;strokeColor=none;fillColor=none;align=left;verticalAlign=top;spacingLeft=4;spacingRight=4;whiteSpace=wrap;overflow=hidden;rotatable=0;points=[[0,0.5],[1,0.5]];portConstraint=eastwest;" parent="ICaOzD0aiAJlALt-W4pU-48" vertex="1">
          <mxGeometry y="584" width="280" height="32" as="geometry"/>
        </mxCell>
        <mxCell id="ICaOzD0aiAJlALt-W4pU-70" value="" style="line;html=1;strokeWidth=1;fillColor=none;align=left;verticalAlign=middle;spacingTop=-1;spacingLeft=3;spacingRight=3;rotatable=0;labelPosition=right;points=[];portConstraint=eastwest;" parent="ICaOzD0aiAJlALt-W4pU-48" vertex="1">
          <mxGeometry y="616" width="280" as="geometry"/>
        </mxCell>
        <mxCell id="2RO7b1EySUIn5wooA4Gc-2" value="" style="line;html=1;strokeWidth=1;fillColor=none;align=left;verticalAlign=middle;spacingTop=-1;spacingLeft=3;spacingRight=3;rotatable=0;labelPosition=right;points=[];portConstraint=eastwest;" parent="ICaOzD0aiAJlALt-W4pU-48" vertex="1">
          <mxGeometry y="616" width="280" height="8" as="geometry"/>
        </mxCell>
        <mxCell id="ICaOzD0aiAJlALt-W4pU-58" value="&lt;font style=&quot;vertical-align: inherit&quot;&gt;&lt;font style=&quot;vertical-align: inherit&quot;&gt;&lt;font style=&quot;vertical-align: inherit&quot;&gt;&lt;font style=&quot;vertical-align: inherit&quot;&gt;&lt;font style=&quot;vertical-align: inherit&quot;&gt;&lt;font style=&quot;vertical-align: inherit&quot;&gt;toString():String&lt;/font&gt;&lt;/font&gt;&lt;/font&gt;&lt;/font&gt;&lt;/font&gt;&lt;/font&gt;" style="text;html=1;strokeColor=none;fillColor=none;align=left;verticalAlign=top;spacingLeft=4;spacingRight=4;whiteSpace=wrap;overflow=hidden;rotatable=0;points=[[0,0.5],[1,0.5]];portConstraint=eastwest;" parent="ICaOzD0aiAJlALt-W4pU-48" vertex="1">
          <mxGeometry y="624" width="280" height="26" as="geometry"/>
        </mxCell>
        <mxCell id="ICaOzD0aiAJlALt-W4pU-56" value="hashCode():int" style="text;html=1;strokeColor=none;fillColor=none;align=left;verticalAlign=top;spacingLeft=4;spacingRight=4;whiteSpace=wrap;overflow=hidden;rotatable=0;points=[[0,0.5],[1,0.5]];portConstraint=eastwest;" parent="ICaOzD0aiAJlALt-W4pU-48" vertex="1">
          <mxGeometry y="650" width="280" height="26" as="geometry"/>
        </mxCell>
        <mxCell id="ICaOzD0aiAJlALt-W4pU-57" value="&lt;font style=&quot;vertical-align: inherit&quot;&gt;&lt;font style=&quot;vertical-align: inherit&quot;&gt;clone():Task&lt;/font&gt;&lt;/font&gt;" style="text;html=1;strokeColor=none;fillColor=none;align=left;verticalAlign=top;spacingLeft=4;spacingRight=4;whiteSpace=wrap;overflow=hidden;rotatable=0;points=[[0,0.5],[1,0.5]];portConstraint=eastwest;" parent="ICaOzD0aiAJlALt-W4pU-48" vertex="1">
          <mxGeometry y="676" width="280" height="26" as="geometry"/>
        </mxCell>
        <mxCell id="ICaOzD0aiAJlALt-W4pU-55" value="equals(Object):boolean&lt;span style=&quot;color: rgba(0 , 0 , 0 , 0) ; font-family: monospace ; font-size: 0px ; white-space: nowrap&quot;&gt;%3CmxGraphModel%3E%3Croot%3E%3CmxCell%20id%3D%220%22%2F%3E%3CmxCell%20id%3D%221%22%20parent%3D%220%22%2F%3E%3CmxCell%20id%3D%222%22%20value%3D%22getTask(int)%3ATask%26lt%3Bspan%20style%3D%26quot%3Bcolor%3A%20rgba(0%20%2C%200%20%2C%200%20%2C%200)%20%3B%20font-family%3A%20monospace%20%3B%20font-size%3A%200px%20%3B%20white-space%3A%20nowrap%26quot%3B%26gt%3B%253CmxGraphModel%253E%253Croot%253E%253CmxCell%2520id%253D%25220%2522%252F%253E%253CmxCell%2520id%253D%25221%2522%2520parent%253D%25220%2522%252F%253E%253CmxCell%2520id%253D%25222%2522%2520value%253D%2522size()%253Aint%2522%2520style%253D%2522text%253Bhtml%253D1%253BstrokeColor%253Dnone%253BfillColor%253Dnone%253Balign%253Dleft%253BverticalAlign%253Dtop%253BspacingLeft%253D4%253BspacingRight%253D4%253BwhiteSpace%253Dwrap%253Boverflow%253Dhidden%253Brotatable%253D0%253Bpoints%253D%255B%255B0%252C0.5%255D%252C%255B1%252C0.5%255D%255D%253BportConstraint%253Deastwest%253B%2522%2520vertex%253D%25221%2522%2520parent%253D%25221%2522%253E%253CmxGeometry%2520x%253D%252260%2522%2520y%253D%2522581%2522%2520width%253D%2522160%2522%2520height%253D%252226%2522%2520as%253D%2522geometry%2522%252F%253E%253C%252FmxCell%253E%253C%252Froot%253E%253C%252FmxGraphModel%253E%26lt%3B%2Fspan%26gt%3B%22%20style%3D%22text%3Bhtml%3D1%3BstrokeColor%3Dnone%3BfillColor%3Dnone%3Balign%3Dleft%3BverticalAlign%3Dtop%3BspacingLeft%3D4%3BspacingRight%3D4%3BwhiteSpace%3Dwrap%3Boverflow%3Dhidden%3Brotatable%3D0%3Bpoints%3D%5B%5B0%2C0.5%5D%2C%5B1%2C0.5%5D%5D%3BportConstraint%3Deastwest%3B%22%20vertex%3D%221%22%20parent%3D%221%22%3E%3CmxGeometry%20x%3D%2260%22%20y%3D%22607%22%20width%3D%22160%22%20height%3D%2226%22%20as%3D%22geometry%22%2F%3E%3C%2FmxCell%3E%3C%2Froot%3E%3C%2FmxGraphModel%3E&lt;/span&gt;" style="text;html=1;strokeColor=none;fillColor=none;align=left;verticalAlign=top;spacingLeft=4;spacingRight=4;whiteSpace=wrap;overflow=hidden;rotatable=0;points=[[0,0.5],[1,0.5]];portConstraint=eastwest;" parent="ICaOzD0aiAJlALt-W4pU-48" vertex="1">
          <mxGeometry y="702" width="280" height="26" as="geometry"/>
        </mxCell>
        <mxCell id="2RO7b1EySUIn5wooA4Gc-13" value="nextTimeAfter(LocalDateTime):LocalDateTime" style="text;html=1;strokeColor=none;fillColor=none;align=left;verticalAlign=top;spacingLeft=4;spacingRight=4;whiteSpace=wrap;overflow=hidden;rotatable=0;points=[[0,0.5],[1,0.5]];portConstraint=eastwest;" parent="ICaOzD0aiAJlALt-W4pU-48" vertex="1">
          <mxGeometry y="728" width="280" height="40" as="geometry"/>
        </mxCell>
        <mxCell id="2RO7b1EySUIn5wooA4Gc-15" value="TaskListFactory" style="swimlane;html=1;fontStyle=1;align=center;verticalAlign=top;childLayout=stackLayout;horizontal=1;startSize=26;horizontalStack=0;resizeParent=1;resizeLast=0;collapsible=1;marginBottom=0;swimlaneFillColor=#ffffff;rounded=0;shadow=0;comic=0;labelBackgroundColor=none;strokeWidth=1;fillColor=#dae8fc;fontFamily=Verdana;fontSize=12;strokeColor=#6c8ebf;" parent="1" vertex="1">
          <mxGeometry x="455" y="990" width="230" height="50" as="geometry"/>
        </mxCell>
        <mxCell id="2RO7b1EySUIn5wooA4Gc-16" value="create(ListTypes.types):AbstractTaskList" style="text;html=1;strokeColor=none;fillColor=none;align=left;verticalAlign=top;spacingLeft=4;spacingRight=4;whiteSpace=wrap;overflow=hidden;rotatable=0;points=[[0,0.5],[1,0.5]];portConstraint=eastwest;" parent="2RO7b1EySUIn5wooA4Gc-15" vertex="1">
          <mxGeometry y="26" width="230" height="24" as="geometry"/>
        </mxCell>
        <mxCell id="2RO7b1EySUIn5wooA4Gc-18" value="TaskIO" style="swimlane;html=1;fontStyle=1;align=center;verticalAlign=top;childLayout=stackLayout;horizontal=1;startSize=26;horizontalStack=0;resizeParent=1;resizeLast=0;collapsible=1;marginBottom=0;swimlaneFillColor=#ffffff;rounded=0;shadow=0;comic=0;labelBackgroundColor=none;strokeWidth=1;fillColor=#dae8fc;fontFamily=Verdana;fontSize=12;strokeColor=#6c8ebf;" parent="1" vertex="1">
          <mxGeometry x="440" y="348" width="260" height="234" as="geometry"/>
        </mxCell>
        <mxCell id="2RO7b1EySUIn5wooA4Gc-19" value="write(AbstractTaskList, OutpustStream):void" style="text;html=1;strokeColor=none;fillColor=none;align=left;verticalAlign=top;spacingLeft=4;spacingRight=4;whiteSpace=wrap;overflow=hidden;rotatable=0;points=[[0,0.5],[1,0.5]];portConstraint=eastwest;" parent="2RO7b1EySUIn5wooA4Gc-18" vertex="1">
          <mxGeometry y="26" width="260" height="26" as="geometry"/>
        </mxCell>
        <mxCell id="2RO7b1EySUIn5wooA4Gc-31" value="read(AbstractTaskList, InputStream):void" style="text;html=1;strokeColor=none;fillColor=none;align=left;verticalAlign=top;spacingLeft=4;spacingRight=4;whiteSpace=wrap;overflow=hidden;rotatable=0;points=[[0,0.5],[1,0.5]];portConstraint=eastwest;" parent="2RO7b1EySUIn5wooA4Gc-18" vertex="1">
          <mxGeometry y="52" width="260" height="26" as="geometry"/>
        </mxCell>
        <mxCell id="2RO7b1EySUIn5wooA4Gc-32" value="writeBinary(AbstractTaskList, File):void" style="text;html=1;strokeColor=none;fillColor=none;align=left;verticalAlign=top;spacingLeft=4;spacingRight=4;whiteSpace=wrap;overflow=hidden;rotatable=0;points=[[0,0.5],[1,0.5]];portConstraint=eastwest;" parent="2RO7b1EySUIn5wooA4Gc-18" vertex="1">
          <mxGeometry y="78" width="260" height="26" as="geometry"/>
        </mxCell>
        <mxCell id="2RO7b1EySUIn5wooA4Gc-33" value="readBinary(AbstractTaskList, File):void" style="text;html=1;strokeColor=none;fillColor=none;align=left;verticalAlign=top;spacingLeft=4;spacingRight=4;whiteSpace=wrap;overflow=hidden;rotatable=0;points=[[0,0.5],[1,0.5]];portConstraint=eastwest;" parent="2RO7b1EySUIn5wooA4Gc-18" vertex="1">
          <mxGeometry y="104" width="260" height="26" as="geometry"/>
        </mxCell>
        <mxCell id="2RO7b1EySUIn5wooA4Gc-34" value="write(AbstractTaskList, Writer):void" style="text;html=1;strokeColor=none;fillColor=none;align=left;verticalAlign=top;spacingLeft=4;spacingRight=4;whiteSpace=wrap;overflow=hidden;rotatable=0;points=[[0,0.5],[1,0.5]];portConstraint=eastwest;" parent="2RO7b1EySUIn5wooA4Gc-18" vertex="1">
          <mxGeometry y="130" width="260" height="26" as="geometry"/>
        </mxCell>
        <mxCell id="2RO7b1EySUIn5wooA4Gc-35" value="read(AbstractTaskList, Reader):void" style="text;html=1;strokeColor=none;fillColor=none;align=left;verticalAlign=top;spacingLeft=4;spacingRight=4;whiteSpace=wrap;overflow=hidden;rotatable=0;points=[[0,0.5],[1,0.5]];portConstraint=eastwest;" parent="2RO7b1EySUIn5wooA4Gc-18" vertex="1">
          <mxGeometry y="156" width="260" height="26" as="geometry"/>
        </mxCell>
        <mxCell id="2RO7b1EySUIn5wooA4Gc-36" value="writeText(AbstractTaskList, File):void" style="text;html=1;strokeColor=none;fillColor=none;align=left;verticalAlign=top;spacingLeft=4;spacingRight=4;whiteSpace=wrap;overflow=hidden;rotatable=0;points=[[0,0.5],[1,0.5]];portConstraint=eastwest;" parent="2RO7b1EySUIn5wooA4Gc-18" vertex="1">
          <mxGeometry y="182" width="260" height="26" as="geometry"/>
        </mxCell>
        <mxCell id="2RO7b1EySUIn5wooA4Gc-37" value="readText(AbstractTaskList, File):void" style="text;html=1;strokeColor=none;fillColor=none;align=left;verticalAlign=top;spacingLeft=4;spacingRight=4;whiteSpace=wrap;overflow=hidden;rotatable=0;points=[[0,0.5],[1,0.5]];portConstraint=eastwest;" parent="2RO7b1EySUIn5wooA4Gc-18" vertex="1">
          <mxGeometry y="208" width="260" height="26" as="geometry"/>
        </mxCell>
        <mxCell id="2RO7b1EySUIn5wooA4Gc-38" value="ListTypes" style="swimlane;html=1;fontStyle=1;align=center;verticalAlign=top;childLayout=stackLayout;horizontal=1;startSize=80;horizontalStack=0;resizeParent=1;resizeLast=0;collapsible=1;marginBottom=0;swimlaneFillColor=#ffffff;rounded=0;shadow=0;comic=0;labelBackgroundColor=none;strokeWidth=1;fillColor=#dae8fc;fontFamily=Verdana;fontSize=12;strokeColor=#6c8ebf;" parent="1" vertex="1">
          <mxGeometry x="550" y="740" width="160" height="29" as="geometry"/>
        </mxCell>
        <mxCell id="2RO7b1EySUIn5wooA4Gc-41" value="types" style="swimlane;html=1;fontStyle=1;align=center;verticalAlign=top;childLayout=stackLayout;horizontal=1;startSize=26;horizontalStack=0;resizeParent=1;resizeLast=0;collapsible=1;marginBottom=0;swimlaneFillColor=#ffffff;rounded=0;shadow=0;comic=0;labelBackgroundColor=none;strokeWidth=1;fontFamily=Verdana;fontSize=12;fillColor=#dae8fc;strokeColor=#6c8ebf;" parent="1" vertex="1">
          <mxGeometry x="550" y="797" width="160" height="80" as="geometry"/>
        </mxCell>
        <mxCell id="2RO7b1EySUIn5wooA4Gc-42" value="ARRAY" style="text;html=1;strokeColor=none;fillColor=none;align=left;verticalAlign=top;spacingLeft=4;spacingRight=4;whiteSpace=wrap;overflow=hidden;rotatable=0;points=[[0,0.5],[1,0.5]];portConstraint=eastwest;" parent="2RO7b1EySUIn5wooA4Gc-41" vertex="1">
          <mxGeometry y="26" width="160" height="26" as="geometry"/>
        </mxCell>
        <mxCell id="2RO7b1EySUIn5wooA4Gc-43" value="LINKED" style="text;html=1;strokeColor=none;fillColor=none;align=left;verticalAlign=top;spacingLeft=4;spacingRight=4;whiteSpace=wrap;overflow=hidden;rotatable=0;points=[[0,0.5],[1,0.5]];portConstraint=eastwest;" parent="2RO7b1EySUIn5wooA4Gc-41" vertex="1">
          <mxGeometry y="52" width="160" height="26" as="geometry"/>
        </mxCell>
        <mxCell id="2RO7b1EySUIn5wooA4Gc-44" value="" style="endArrow=none;html=1;exitX=0.5;exitY=1;exitDx=0;exitDy=0;entryX=0.5;entryY=0;entryDx=0;entryDy=0;" parent="1" source="2RO7b1EySUIn5wooA4Gc-38" target="2RO7b1EySUIn5wooA4Gc-41" edge="1">
          <mxGeometry width="50" height="50" relative="1" as="geometry">
            <mxPoint x="630" y="980" as="sourcePoint"/>
            <mxPoint x="680" y="930" as="targetPoint"/>
          </mxGeometry>
        </mxCell>
        <mxCell id="2RO7b1EySUIn5wooA4Gc-45" value="Tasks" style="swimlane;html=1;fontStyle=1;align=center;verticalAlign=top;childLayout=stackLayout;horizontal=1;startSize=26;horizontalStack=0;resizeParent=1;resizeLast=0;collapsible=1;marginBottom=0;swimlaneFillColor=#ffffff;rounded=0;shadow=0;comic=0;labelBackgroundColor=none;strokeWidth=1;fillColor=#dae8fc;fontFamily=Verdana;fontSize=12;strokeColor=#6c8ebf;" parent="1" vertex="1">
          <mxGeometry x="130" y="1130" width="690" height="100" as="geometry"/>
        </mxCell>
        <mxCell id="2RO7b1EySUIn5wooA4Gc-46" value="incoming(Iterable&amp;lt;Task&amp;gt;, LocalDateTime, LocalDateTime):Iterable&amp;lt;Task&amp;gt;" style="text;html=1;strokeColor=none;fillColor=none;align=left;verticalAlign=top;spacingLeft=4;spacingRight=4;whiteSpace=wrap;overflow=hidden;rotatable=0;points=[[0,0.5],[1,0.5]];portConstraint=eastwest;" parent="2RO7b1EySUIn5wooA4Gc-45" vertex="1">
          <mxGeometry y="26" width="690" height="24" as="geometry"/>
        </mxCell>
        <mxCell id="2RO7b1EySUIn5wooA4Gc-49" value="calendar(Iterable&amp;lt;Task&amp;gt;, LocalDateTime, LocalDateTime):Iterable&amp;lt;Task&amp;gt;" style="text;html=1;strokeColor=none;fillColor=none;align=left;verticalAlign=top;spacingLeft=4;spacingRight=4;whiteSpace=wrap;overflow=hidden;rotatable=0;points=[[0,0.5],[1,0.5]];portConstraint=eastwest;" parent="2RO7b1EySUIn5wooA4Gc-45" vertex="1">
          <mxGeometry y="50" width="690" height="24" as="geometry"/>
        </mxCell>
        <mxCell id="2RO7b1EySUIn5wooA4Gc-52" value="addToMapNoRepeatTask(SortedMap&amp;lt;LocalDateTime, Set&amp;lt;Task&amp;gt;&amp;gt;, LocalDateTime, LocalDateTime, LocalDateTime, Task):void" style="text;html=1;strokeColor=none;fillColor=none;align=left;verticalAlign=top;spacingLeft=4;spacingRight=4;whiteSpace=wrap;overflow=hidden;rotatable=0;points=[[0,0.5],[1,0.5]];portConstraint=eastwest;" parent="2RO7b1EySUIn5wooA4Gc-45" vertex="1">
          <mxGeometry y="74" width="690" height="24" as="geometry"/>
        </mxCell>
        <mxCell id="2RO7b1EySUIn5wooA4Gc-54" value="" style="rounded=0;whiteSpace=wrap;html=1;glass=0;" parent="1" vertex="1">
          <mxGeometry x="1290" y="210" width="1200" height="1060" as="geometry"/>
        </mxCell>
        <mxCell id="dQlp6ixvl8-6DKeDqfZ5-45" style="edgeStyle=orthogonalEdgeStyle;rounded=0;orthogonalLoop=1;jettySize=auto;html=1;entryX=0.464;entryY=1.031;entryDx=0;entryDy=0;entryPerimeter=0;" parent="1" source="2RO7b1EySUIn5wooA4Gc-65" target="2RO7b1EySUIn5wooA4Gc-154" edge="1">
          <mxGeometry relative="1" as="geometry">
            <Array as="points">
              <mxPoint x="1770" y="630"/>
              <mxPoint x="1770" y="630"/>
            </Array>
          </mxGeometry>
        </mxCell>
        <mxCell id="2RO7b1EySUIn5wooA4Gc-65" value="ConsoleController" style="swimlane;html=1;fontStyle=1;align=center;verticalAlign=top;childLayout=stackLayout;horizontal=1;startSize=26;horizontalStack=0;resizeParent=1;resizeLast=0;collapsible=1;marginBottom=0;swimlaneFillColor=#ffffff;rounded=0;shadow=0;comic=0;labelBackgroundColor=none;strokeWidth=1;fillColor=#dae8fc;fontFamily=Verdana;fontSize=12;strokeColor=#6c8ebf;" parent="1" vertex="1">
          <mxGeometry x="1650" y="750" width="240" height="80" as="geometry"/>
        </mxCell>
        <mxCell id="2RO7b1EySUIn5wooA4Gc-66" value="taskList:AbstractTaskList" style="text;html=1;strokeColor=none;fillColor=none;align=left;verticalAlign=top;spacingLeft=4;spacingRight=4;whiteSpace=wrap;overflow=hidden;rotatable=0;points=[[0,0.5],[1,0.5]];portConstraint=eastwest;" parent="2RO7b1EySUIn5wooA4Gc-65" vertex="1">
          <mxGeometry y="26" width="240" height="22" as="geometry"/>
        </mxCell>
        <mxCell id="2RO7b1EySUIn5wooA4Gc-68" value="" style="line;html=1;strokeWidth=1;fillColor=none;align=left;verticalAlign=middle;spacingTop=-1;spacingLeft=3;spacingRight=3;rotatable=0;labelPosition=right;points=[];portConstraint=eastwest;" parent="2RO7b1EySUIn5wooA4Gc-65" vertex="1">
          <mxGeometry y="48" width="240" height="8" as="geometry"/>
        </mxCell>
        <mxCell id="2RO7b1EySUIn5wooA4Gc-69" value="ConsoleController(AbstractTaskList, View)" style="text;html=1;strokeColor=none;fillColor=none;align=left;verticalAlign=top;spacingLeft=4;spacingRight=4;whiteSpace=wrap;overflow=hidden;rotatable=0;points=[[0,0.5],[1,0.5]];portConstraint=eastwest;" parent="2RO7b1EySUIn5wooA4Gc-65" vertex="1">
          <mxGeometry y="56" width="240" height="24" as="geometry"/>
        </mxCell>
        <mxCell id="2RO7b1EySUIn5wooA4Gc-78" value="&lt;h1&gt;Package controller&lt;/h1&gt;" style="text;html=1;strokeColor=#6c8ebf;fillColor=#dae8fc;spacing=5;spacingTop=-20;whiteSpace=wrap;overflow=hidden;rounded=0;glass=0;" parent="1" vertex="1">
          <mxGeometry x="1700" y="250" width="230" height="40" as="geometry"/>
        </mxCell>
        <mxCell id="2RO7b1EySUIn5wooA4Gc-96" value="Controller" style="swimlane;html=1;fontStyle=1;align=center;verticalAlign=top;childLayout=stackLayout;horizontal=1;startSize=26;horizontalStack=0;resizeParent=1;resizeLast=0;collapsible=1;marginBottom=0;swimlaneFillColor=#ffffff;rounded=0;shadow=0;comic=0;labelBackgroundColor=none;strokeWidth=1;fillColor=#dae8fc;fontFamily=Verdana;fontSize=12;strokeColor=#6c8ebf;" parent="1" vertex="1">
          <mxGeometry x="1640" y="460" width="280" height="258" as="geometry"/>
        </mxCell>
        <mxCell id="2RO7b1EySUIn5wooA4Gc-97" value="view:View" style="text;html=1;strokeColor=none;fillColor=none;align=left;verticalAlign=top;spacingLeft=4;spacingRight=4;whiteSpace=wrap;overflow=hidden;rotatable=0;points=[[0,0.5],[1,0.5]];portConstraint=eastwest;" parent="2RO7b1EySUIn5wooA4Gc-96" vertex="1">
          <mxGeometry y="26" width="280" height="24" as="geometry"/>
        </mxCell>
        <mxCell id="dQlp6ixvl8-6DKeDqfZ5-33" value="actions:Actions" style="text;html=1;strokeColor=none;fillColor=none;align=left;verticalAlign=top;spacingLeft=4;spacingRight=4;whiteSpace=wrap;overflow=hidden;rotatable=0;points=[[0,0.5],[1,0.5]];portConstraint=eastwest;" parent="2RO7b1EySUIn5wooA4Gc-96" vertex="1">
          <mxGeometry y="50" width="280" height="24" as="geometry"/>
        </mxCell>
        <mxCell id="2RO7b1EySUIn5wooA4Gc-104" value="" style="line;html=1;strokeWidth=1;fillColor=none;align=left;verticalAlign=middle;spacingTop=-1;spacingLeft=3;spacingRight=3;rotatable=0;labelPosition=right;points=[];portConstraint=eastwest;" parent="2RO7b1EySUIn5wooA4Gc-96" vertex="1">
          <mxGeometry y="74" width="280" height="8" as="geometry"/>
        </mxCell>
        <mxCell id="2RO7b1EySUIn5wooA4Gc-105" value="&lt;font style=&quot;vertical-align: inherit&quot;&gt;&lt;font style=&quot;vertical-align: inherit&quot;&gt;&lt;font style=&quot;vertical-align: inherit&quot;&gt;&lt;font style=&quot;vertical-align: inherit&quot;&gt;&lt;font style=&quot;vertical-align: inherit&quot;&gt;&lt;font style=&quot;vertical-align: inherit&quot;&gt;Controller(View, int)&lt;/font&gt;&lt;/font&gt;&lt;/font&gt;&lt;/font&gt;&lt;/font&gt;&lt;/font&gt;" style="text;html=1;strokeColor=none;fillColor=none;align=left;verticalAlign=top;spacingLeft=4;spacingRight=4;whiteSpace=wrap;overflow=hidden;rotatable=0;points=[[0,0.5],[1,0.5]];portConstraint=eastwest;" parent="2RO7b1EySUIn5wooA4Gc-96" vertex="1">
          <mxGeometry y="82" width="280" height="26" as="geometry"/>
        </mxCell>
        <mxCell id="2RO7b1EySUIn5wooA4Gc-107" value="" style="line;html=1;strokeWidth=1;fillColor=none;align=left;verticalAlign=middle;spacingTop=-1;spacingLeft=3;spacingRight=3;rotatable=0;labelPosition=right;points=[];portConstraint=eastwest;" parent="2RO7b1EySUIn5wooA4Gc-96" vertex="1">
          <mxGeometry y="108" width="280" height="8" as="geometry"/>
        </mxCell>
        <mxCell id="2RO7b1EySUIn5wooA4Gc-154" value="process(Actions):void" style="text;html=1;strokeColor=none;fillColor=none;align=left;verticalAlign=top;spacingLeft=4;spacingRight=4;whiteSpace=wrap;overflow=hidden;rotatable=0;points=[[0,0.5],[1,0.5]];portConstraint=eastwest;" parent="2RO7b1EySUIn5wooA4Gc-96" vertex="1">
          <mxGeometry y="116" width="280" height="32" as="geometry"/>
        </mxCell>
        <mxCell id="yZ9xAeDcQygXC4oMZG9j-8" value="addTask(AbstractTaskList):int" style="text;html=1;strokeColor=none;fillColor=none;align=left;verticalAlign=top;spacingLeft=4;spacingRight=4;whiteSpace=wrap;overflow=hidden;rotatable=0;points=[[0,0.5],[1,0.5]];portConstraint=eastwest;" parent="2RO7b1EySUIn5wooA4Gc-96" vertex="1">
          <mxGeometry y="148" width="280" height="26" as="geometry"/>
        </mxCell>
        <mxCell id="yZ9xAeDcQygXC4oMZG9j-7" value="removeTask(AbstractTaskList):int" style="text;html=1;strokeColor=none;fillColor=none;align=left;verticalAlign=top;spacingLeft=4;spacingRight=4;whiteSpace=wrap;overflow=hidden;rotatable=0;points=[[0,0.5],[1,0.5]];portConstraint=eastwest;" parent="2RO7b1EySUIn5wooA4Gc-96" vertex="1">
          <mxGeometry y="174" width="280" height="26" as="geometry"/>
        </mxCell>
        <mxCell id="yZ9xAeDcQygXC4oMZG9j-10" value="changeTask(AbstractTaskList):int" style="text;html=1;strokeColor=none;fillColor=none;align=left;verticalAlign=top;spacingLeft=4;spacingRight=4;whiteSpace=wrap;overflow=hidden;rotatable=0;points=[[0,0.5],[1,0.5]];portConstraint=eastwest;" parent="2RO7b1EySUIn5wooA4Gc-96" vertex="1">
          <mxGeometry y="200" width="280" height="26" as="geometry"/>
        </mxCell>
        <mxCell id="yZ9xAeDcQygXC4oMZG9j-1" value="setActions(Actions):void" style="text;html=1;strokeColor=none;fillColor=none;align=left;verticalAlign=top;spacingLeft=4;spacingRight=4;whiteSpace=wrap;overflow=hidden;rotatable=0;points=[[0,0.5],[1,0.5]];portConstraint=eastwest;" parent="2RO7b1EySUIn5wooA4Gc-96" vertex="1">
          <mxGeometry y="226" width="280" height="32" as="geometry"/>
        </mxCell>
        <mxCell id="2RO7b1EySUIn5wooA4Gc-128" value="Actions" style="swimlane;html=1;fontStyle=1;align=center;verticalAlign=top;childLayout=stackLayout;horizontal=1;startSize=26;horizontalStack=0;resizeParent=1;resizeLast=0;collapsible=1;marginBottom=0;swimlaneFillColor=#ffffff;rounded=0;shadow=0;comic=0;labelBackgroundColor=none;strokeWidth=1;fillColor=#dae8fc;fontFamily=Verdana;fontSize=12;strokeColor=#6c8ebf;" parent="1" vertex="1">
          <mxGeometry x="2150" y="500" width="260" height="182" as="geometry"/>
        </mxCell>
        <mxCell id="2RO7b1EySUIn5wooA4Gc-129" value="MAIN_MENU" style="text;html=1;strokeColor=none;fillColor=none;align=left;verticalAlign=top;spacingLeft=4;spacingRight=4;whiteSpace=wrap;overflow=hidden;rotatable=0;points=[[0,0.5],[1,0.5]];portConstraint=eastwest;" parent="2RO7b1EySUIn5wooA4Gc-128" vertex="1">
          <mxGeometry y="26" width="260" height="26" as="geometry"/>
        </mxCell>
        <mxCell id="2RO7b1EySUIn5wooA4Gc-146" value="ADD_TASK" style="text;html=1;strokeColor=none;fillColor=none;align=left;verticalAlign=top;spacingLeft=4;spacingRight=4;whiteSpace=wrap;overflow=hidden;rotatable=0;points=[[0,0.5],[1,0.5]];portConstraint=eastwest;" parent="2RO7b1EySUIn5wooA4Gc-128" vertex="1">
          <mxGeometry y="52" width="260" height="26" as="geometry"/>
        </mxCell>
        <mxCell id="2RO7b1EySUIn5wooA4Gc-147" value="REMOVE_TASK" style="text;html=1;strokeColor=none;fillColor=none;align=left;verticalAlign=top;spacingLeft=4;spacingRight=4;whiteSpace=wrap;overflow=hidden;rotatable=0;points=[[0,0.5],[1,0.5]];portConstraint=eastwest;" parent="2RO7b1EySUIn5wooA4Gc-128" vertex="1">
          <mxGeometry y="78" width="260" height="26" as="geometry"/>
        </mxCell>
        <mxCell id="dQlp6ixvl8-6DKeDqfZ5-34" value="CHANGE_TASK" style="text;html=1;strokeColor=none;fillColor=none;align=left;verticalAlign=top;spacingLeft=4;spacingRight=4;whiteSpace=wrap;overflow=hidden;rotatable=0;points=[[0,0.5],[1,0.5]];portConstraint=eastwest;" parent="2RO7b1EySUIn5wooA4Gc-128" vertex="1">
          <mxGeometry y="104" width="260" height="26" as="geometry"/>
        </mxCell>
        <mxCell id="2RO7b1EySUIn5wooA4Gc-148" value="CALENDAR" style="text;html=1;strokeColor=none;fillColor=none;align=left;verticalAlign=top;spacingLeft=4;spacingRight=4;whiteSpace=wrap;overflow=hidden;rotatable=0;points=[[0,0.5],[1,0.5]];portConstraint=eastwest;" parent="2RO7b1EySUIn5wooA4Gc-128" vertex="1">
          <mxGeometry y="130" width="260" height="26" as="geometry"/>
        </mxCell>
        <mxCell id="2RO7b1EySUIn5wooA4Gc-149" value="FINISH" style="text;html=1;strokeColor=none;fillColor=none;align=left;verticalAlign=top;spacingLeft=4;spacingRight=4;whiteSpace=wrap;overflow=hidden;rotatable=0;points=[[0,0.5],[1,0.5]];portConstraint=eastwest;" parent="2RO7b1EySUIn5wooA4Gc-128" vertex="1">
          <mxGeometry y="156" width="260" height="26" as="geometry"/>
        </mxCell>
        <mxCell id="2RO7b1EySUIn5wooA4Gc-151" value="" style="endArrow=none;html=1;exitX=0.5;exitY=0;exitDx=0;exitDy=0;entryX=1;entryY=0.5;entryDx=0;entryDy=0;" parent="1" source="2RO7b1EySUIn5wooA4Gc-128" target="2RO7b1EySUIn5wooA4Gc-96" edge="1">
          <mxGeometry width="50" height="50" relative="1" as="geometry">
            <mxPoint x="1910" y="700" as="sourcePoint"/>
            <mxPoint x="1960" y="650" as="targetPoint"/>
            <Array as="points">
              <mxPoint x="2280" y="470"/>
              <mxPoint x="2080" y="470"/>
              <mxPoint x="2080" y="534"/>
            </Array>
          </mxGeometry>
        </mxCell>
        <mxCell id="QOhfFbj_r9PEdD5k2TwA-14" value="" style="rounded=0;whiteSpace=wrap;html=1;glass=0;" parent="1" vertex="1">
          <mxGeometry x="2565.71" y="220" width="1200" height="1060" as="geometry"/>
        </mxCell>
        <mxCell id="QOhfFbj_r9PEdD5k2TwA-15" value="ConsoleView" style="swimlane;html=1;fontStyle=1;align=center;verticalAlign=top;childLayout=stackLayout;horizontal=1;startSize=26;horizontalStack=0;resizeParent=1;resizeLast=0;collapsible=1;marginBottom=0;swimlaneFillColor=#ffffff;rounded=0;shadow=0;comic=0;labelBackgroundColor=none;strokeWidth=1;fillColor=#dae8fc;fontFamily=Verdana;fontSize=12;strokeColor=#6c8ebf;" parent="1" vertex="1">
          <mxGeometry x="3125.36" y="662" width="220" height="56" as="geometry"/>
        </mxCell>
        <mxCell id="QOhfFbj_r9PEdD5k2TwA-16" value="reader:BufferedReader" style="text;html=1;strokeColor=none;fillColor=none;align=left;verticalAlign=top;spacingLeft=4;spacingRight=4;whiteSpace=wrap;overflow=hidden;rotatable=0;points=[[0,0.5],[1,0.5]];portConstraint=eastwest;" parent="QOhfFbj_r9PEdD5k2TwA-15" vertex="1">
          <mxGeometry y="26" width="220" height="22" as="geometry"/>
        </mxCell>
        <mxCell id="QOhfFbj_r9PEdD5k2TwA-22" value="&lt;h1&gt;Package view&lt;/h1&gt;" style="text;html=1;strokeColor=#6c8ebf;fillColor=#dae8fc;spacing=5;spacingTop=-20;whiteSpace=wrap;overflow=hidden;rounded=0;glass=0;" parent="1" vertex="1">
          <mxGeometry x="3050.71" y="250" width="230" height="40" as="geometry"/>
        </mxCell>
        <mxCell id="QOhfFbj_r9PEdD5k2TwA-59" value="&lt;p style=&quot;margin: 0px ; margin-top: 4px ; text-align: center&quot;&gt;&lt;i&gt;&amp;lt;&amp;lt;Interface&amp;gt;&amp;gt;&lt;/i&gt;&lt;br&gt;&lt;b&gt;View&lt;/b&gt;&lt;/p&gt;&lt;hr size=&quot;1&quot;&gt;&lt;p style=&quot;margin: 0px ; margin-left: 4px&quot;&gt;+ showMessage(String):void&lt;br&gt;&lt;/p&gt;" style="verticalAlign=top;align=left;overflow=fill;fontSize=12;fontFamily=Helvetica;html=1;" parent="1" vertex="1">
          <mxGeometry x="3060.71" y="340" width="349.29" height="250" as="geometry"/>
        </mxCell>
        <mxCell id="dQlp6ixvl8-6DKeDqfZ5-15" value="" style="endArrow=none;dashed=1;html=1;exitX=0.5;exitY=0;exitDx=0;exitDy=0;entryX=0.5;entryY=1;entryDx=0;entryDy=0;" parent="1" source="QOhfFbj_r9PEdD5k2TwA-15" target="QOhfFbj_r9PEdD5k2TwA-59" edge="1">
          <mxGeometry width="50" height="50" relative="1" as="geometry">
            <mxPoint x="3270" y="470" as="sourcePoint"/>
            <mxPoint x="3320" y="420" as="targetPoint"/>
          </mxGeometry>
        </mxCell>
        <mxCell id="yZ9xAeDcQygXC4oMZG9j-16" value="+ update():int" style="text;strokeColor=none;fillColor=none;align=left;verticalAlign=top;spacingLeft=4;spacingRight=4;overflow=hidden;rotatable=0;points=[[0,0.5],[1,0.5]];portConstraint=eastwest;" parent="1" vertex="1">
          <mxGeometry x="3060.71" y="404" width="189.29" height="26" as="geometry"/>
        </mxCell>
        <mxCell id="yZ9xAeDcQygXC4oMZG9j-17" value="+ addTask():Task" style="text;strokeColor=none;fillColor=none;align=left;verticalAlign=top;spacingLeft=4;spacingRight=4;overflow=hidden;rotatable=0;points=[[0,0.5],[1,0.5]];portConstraint=eastwest;" parent="1" vertex="1">
          <mxGeometry x="3060.71" y="430" width="189.29" height="26" as="geometry"/>
        </mxCell>
        <mxCell id="yZ9xAeDcQygXC4oMZG9j-18" value="+ removeTask():Task" style="text;strokeColor=none;fillColor=none;align=left;verticalAlign=top;spacingLeft=4;spacingRight=4;overflow=hidden;rotatable=0;points=[[0,0.5],[1,0.5]];portConstraint=eastwest;" parent="1" vertex="1">
          <mxGeometry x="3061.42" y="456" width="189.29" height="26" as="geometry"/>
        </mxCell>
        <mxCell id="yZ9xAeDcQygXC4oMZG9j-19" value="+ changeTask():Task" style="text;html=1;strokeColor=none;fillColor=none;align=left;verticalAlign=top;spacingLeft=4;spacingRight=4;whiteSpace=wrap;overflow=hidden;rotatable=0;points=[[0,0.5],[1,0.5]];portConstraint=eastwest;" parent="1" vertex="1">
          <mxGeometry x="3060.71" y="482" width="189.29" height="26" as="geometry"/>
        </mxCell>
        <mxCell id="s_BUjWQrzMSPQlRfPTQx-13" value="&lt;p style=&quot;margin: 0px ; margin-top: 4px ; text-align: center&quot;&gt;&lt;i&gt;&amp;lt;&amp;lt;Interface&amp;gt;&amp;gt;&lt;/i&gt;&lt;br&gt;&lt;b&gt;Observable&lt;/b&gt;&lt;/p&gt;&lt;hr size=&quot;1&quot;&gt;&lt;p style=&quot;margin: 0px ; margin-left: 4px&quot;&gt;+ register(Observer): void&lt;br&gt;+ remove(Observer): void&lt;/p&gt;&lt;p style=&quot;margin: 0px ; margin-left: 4px&quot;&gt;+ notifyObservers: void&lt;/p&gt;" style="verticalAlign=top;align=left;overflow=fill;fontSize=12;fontFamily=Helvetica;html=1;" parent="1" vertex="1">
          <mxGeometry x="760" y="915" width="190" height="90" as="geometry"/>
        </mxCell>
        <mxCell id="s_BUjWQrzMSPQlRfPTQx-14" value="&lt;p style=&quot;margin: 0px ; margin-top: 4px ; text-align: center&quot;&gt;&lt;i&gt;&amp;lt;&amp;lt;Interface&amp;gt;&amp;gt;&lt;/i&gt;&lt;br&gt;&lt;b&gt;Observer&lt;/b&gt;&lt;/p&gt;&lt;hr size=&quot;1&quot;&gt;&lt;p style=&quot;margin: 0px ; margin-left: 4px&quot;&gt;+ update(Set&amp;lt;Task&amp;gt;):void&lt;br&gt;&lt;/p&gt;" style="verticalAlign=top;align=left;overflow=fill;fontSize=12;fontFamily=Helvetica;html=1;" parent="1" vertex="1">
          <mxGeometry x="760" y="1040" width="190" height="70" as="geometry"/>
        </mxCell>
        <mxCell id="s_BUjWQrzMSPQlRfPTQx-32" style="edgeStyle=orthogonalEdgeStyle;rounded=0;orthogonalLoop=1;jettySize=auto;html=1;entryX=1;entryY=0.5;entryDx=0;entryDy=0;" parent="1" source="s_BUjWQrzMSPQlRfPTQx-28" target="s_BUjWQrzMSPQlRfPTQx-13" edge="1">
          <mxGeometry relative="1" as="geometry"/>
        </mxCell>
        <mxCell id="s_BUjWQrzMSPQlRfPTQx-28" value="NotificationManager" style="swimlane;fontStyle=1;align=center;verticalAlign=top;childLayout=stackLayout;horizontal=1;startSize=26;horizontalStack=0;resizeParent=1;resizeParentMax=0;resizeLast=0;collapsible=1;marginBottom=0;" parent="1" vertex="1">
          <mxGeometry x="1050" y="1050" width="160" height="86" as="geometry">
            <mxRectangle x="1050" y="1050" width="150" height="26" as="alternateBounds"/>
          </mxGeometry>
        </mxCell>
        <mxCell id="s_BUjWQrzMSPQlRfPTQx-29" value="observers:List&lt;Observer&gt;" style="text;strokeColor=none;fillColor=none;align=left;verticalAlign=top;spacingLeft=4;spacingRight=4;overflow=hidden;rotatable=0;points=[[0,0.5],[1,0.5]];portConstraint=eastwest;" parent="s_BUjWQrzMSPQlRfPTQx-28" vertex="1">
          <mxGeometry y="26" width="160" height="26" as="geometry"/>
        </mxCell>
        <mxCell id="s_BUjWQrzMSPQlRfPTQx-30" value="" style="line;strokeWidth=1;fillColor=none;align=left;verticalAlign=middle;spacingTop=-1;spacingLeft=3;spacingRight=3;rotatable=0;labelPosition=right;points=[];portConstraint=eastwest;" parent="s_BUjWQrzMSPQlRfPTQx-28" vertex="1">
          <mxGeometry y="52" width="160" height="8" as="geometry"/>
        </mxCell>
        <mxCell id="s_BUjWQrzMSPQlRfPTQx-31" value="+ setTask(Set&lt;Task&gt;): void" style="text;strokeColor=none;fillColor=none;align=left;verticalAlign=top;spacingLeft=4;spacingRight=4;overflow=hidden;rotatable=0;points=[[0,0.5],[1,0.5]];portConstraint=eastwest;" parent="s_BUjWQrzMSPQlRfPTQx-28" vertex="1">
          <mxGeometry y="60" width="160" height="26" as="geometry"/>
        </mxCell>
        <mxCell id="s_BUjWQrzMSPQlRfPTQx-37" style="edgeStyle=orthogonalEdgeStyle;rounded=0;orthogonalLoop=1;jettySize=auto;html=1;entryX=0.5;entryY=1;entryDx=0;entryDy=0;" parent="1" source="s_BUjWQrzMSPQlRfPTQx-33" target="s_BUjWQrzMSPQlRfPTQx-14" edge="1">
          <mxGeometry relative="1" as="geometry"/>
        </mxCell>
        <mxCell id="s_BUjWQrzMSPQlRfPTQx-33" value="ConsoleNotification" style="swimlane;fontStyle=1;align=center;verticalAlign=top;childLayout=stackLayout;horizontal=1;startSize=26;horizontalStack=0;resizeParent=1;resizeParentMax=0;resizeLast=0;collapsible=1;marginBottom=0;" parent="1" vertex="1">
          <mxGeometry x="870" y="1160" width="160" height="86" as="geometry"/>
        </mxCell>
        <mxCell id="s_BUjWQrzMSPQlRfPTQx-34" value="task:Set&lt;Task&gt;" style="text;strokeColor=none;fillColor=none;align=left;verticalAlign=top;spacingLeft=4;spacingRight=4;overflow=hidden;rotatable=0;points=[[0,0.5],[1,0.5]];portConstraint=eastwest;" parent="s_BUjWQrzMSPQlRfPTQx-33" vertex="1">
          <mxGeometry y="26" width="160" height="26" as="geometry"/>
        </mxCell>
        <mxCell id="s_BUjWQrzMSPQlRfPTQx-35" value="" style="line;strokeWidth=1;fillColor=none;align=left;verticalAlign=middle;spacingTop=-1;spacingLeft=3;spacingRight=3;rotatable=0;labelPosition=right;points=[];portConstraint=eastwest;" parent="s_BUjWQrzMSPQlRfPTQx-33" vertex="1">
          <mxGeometry y="52" width="160" height="8" as="geometry"/>
        </mxCell>
        <mxCell id="s_BUjWQrzMSPQlRfPTQx-36" value="display():void" style="text;strokeColor=none;fillColor=none;align=left;verticalAlign=top;spacingLeft=4;spacingRight=4;overflow=hidden;rotatable=0;points=[[0,0.5],[1,0.5]];portConstraint=eastwest;" parent="s_BUjWQrzMSPQlRfPTQx-33" vertex="1">
          <mxGeometry y="60" width="160" height="26" as="geometry"/>
        </mxCell>
        <mxCell id="s_BUjWQrzMSPQlRfPTQx-39" value="+ mainMenu():void" style="text;html=1;strokeColor=none;fillColor=none;align=left;verticalAlign=top;spacingLeft=4;spacingRight=4;whiteSpace=wrap;overflow=hidden;rotatable=0;points=[[0,0.5],[1,0.5]];portConstraint=eastwest;" parent="1" vertex="1">
          <mxGeometry x="3061.42" y="508" width="189.29" height="26" as="geometry"/>
        </mxCell>
        <mxCell id="s_BUjWQrzMSPQlRfPTQx-40" value="+ calendar(SortedMap&amp;lt;LocalDateTime, Set&amp;lt;Task&amp;gt;&amp;gt;&lt;span&gt;):void&lt;/span&gt;" style="text;html=1;strokeColor=none;fillColor=none;align=left;verticalAlign=top;spacingLeft=4;spacingRight=4;whiteSpace=wrap;overflow=hidden;rotatable=0;points=[[0,0.5],[1,0.5]];portConstraint=eastwest;" parent="1" vertex="1">
          <mxGeometry x="3060.7" y="534" width="339.3" height="26" as="geometry"/>
        </mxCell>
        <mxCell id="s_BUjWQrzMSPQlRfPTQx-41" value="+ showTasks(AbstractTaskList&lt;span&gt;):void&lt;/span&gt;" style="text;html=1;strokeColor=none;fillColor=none;align=left;verticalAlign=top;spacingLeft=4;spacingRight=4;whiteSpace=wrap;overflow=hidden;rotatable=0;points=[[0,0.5],[1,0.5]];portConstraint=eastwest;" parent="1" vertex="1">
          <mxGeometry x="3060.7" y="560" width="339.3" height="26" as="geometry"/>
        </mxCell>
        <mxCell id="s_BUjWQrzMSPQlRfPTQx-43" value="Use" style="endArrow=open;endSize=12;dashed=1;html=1;exitX=0.5;exitY=0;exitDx=0;exitDy=0;entryX=0.998;entryY=0.051;entryDx=0;entryDy=0;entryPerimeter=0;" parent="1" source="2RO7b1EySUIn5wooA4Gc-96" target="Jl83T3s884Ppd1om0JJ5-16" edge="1">
          <mxGeometry width="160" relative="1" as="geometry">
            <mxPoint x="1410" y="390" as="sourcePoint"/>
            <mxPoint x="1570" y="390" as="targetPoint"/>
          </mxGeometry>
        </mxCell>
        <mxCell id="s_BUjWQrzMSPQlRfPTQx-44" value="Use" style="endArrow=open;endSize=12;dashed=1;html=1;exitX=0.5;exitY=1;exitDx=0;exitDy=0;" parent="1" source="Jl83T3s884Ppd1om0JJ5-1" edge="1">
          <mxGeometry width="160" relative="1" as="geometry">
            <mxPoint x="1350" y="130" as="sourcePoint"/>
            <mxPoint x="1770" y="460" as="targetPoint"/>
          </mxGeometry>
        </mxCell>
        <mxCell id="s_BUjWQrzMSPQlRfPTQx-45" value="Use" style="endArrow=open;endSize=12;dashed=1;html=1;entryX=0.217;entryY=0.007;entryDx=0;entryDy=0;entryPerimeter=0;" parent="1" target="QOhfFbj_r9PEdD5k2TwA-59" edge="1">
          <mxGeometry width="160" relative="1" as="geometry">
            <mxPoint x="1600" y="100" as="sourcePoint"/>
            <mxPoint x="2270" y="120" as="targetPoint"/>
          </mxGeometry>
        </mxCell>
        <mxCell id="s_BUjWQrzMSPQlRfPTQx-46" value="Use" style="endArrow=open;endSize=12;dashed=1;html=1;exitX=0.5;exitY=1;exitDx=0;exitDy=0;entryX=0.654;entryY=-0.008;entryDx=0;entryDy=0;entryPerimeter=0;" parent="1" source="Jl83T3s884Ppd1om0JJ5-1" target="78961159f06e98e8-17" edge="1">
          <mxGeometry width="160" relative="1" as="geometry">
            <mxPoint x="1620" y="115" as="sourcePoint"/>
            <mxPoint x="970" y="85" as="targetPoint"/>
          </mxGeometry>
        </mxCell>
        <mxCell id="s_BUjWQrzMSPQlRfPTQx-48" value="upadte" style="endArrow=open;endSize=12;dashed=1;html=1;entryX=-0.023;entryY=-0.026;entryDx=0;entryDy=0;entryPerimeter=0;" parent="1" target="yZ9xAeDcQygXC4oMZG9j-16" edge="1">
          <mxGeometry width="160" relative="1" as="geometry">
            <mxPoint x="1770" y="460" as="sourcePoint"/>
            <mxPoint x="3156.5059300000003" y="361.75" as="targetPoint"/>
          </mxGeometry>
        </mxCell>
        <mxCell id="s_BUjWQrzMSPQlRfPTQx-49" value="Use" style="endArrow=open;endSize=12;dashed=1;html=1;exitX=0.5;exitY=0;exitDx=0;exitDy=0;" parent="1" source="2RO7b1EySUIn5wooA4Gc-18" edge="1">
          <mxGeometry width="160" relative="1" as="geometry">
            <mxPoint x="670" y="380" as="sourcePoint"/>
            <mxPoint x="1600" y="100" as="targetPoint"/>
          </mxGeometry>
        </mxCell>
        <mxCell id="nTRPJT_verkG5IVa2qYp-4" value="NotificationThread" style="swimlane;fontStyle=1;align=center;verticalAlign=top;childLayout=stackLayout;horizontal=1;startSize=26;horizontalStack=0;resizeParent=1;resizeParentMax=0;resizeLast=0;collapsible=1;marginBottom=0;" vertex="1" parent="1">
          <mxGeometry x="1350" y="1032" width="190" height="112" as="geometry"/>
        </mxCell>
        <mxCell id="nTRPJT_verkG5IVa2qYp-5" value="+ NotificationThread()" style="text;strokeColor=none;fillColor=none;align=left;verticalAlign=top;spacingLeft=4;spacingRight=4;overflow=hidden;rotatable=0;points=[[0,0.5],[1,0.5]];portConstraint=eastwest;" vertex="1" parent="nTRPJT_verkG5IVa2qYp-4">
          <mxGeometry y="26" width="190" height="26" as="geometry"/>
        </mxCell>
        <mxCell id="nTRPJT_verkG5IVa2qYp-6" value="" style="line;strokeWidth=1;fillColor=none;align=left;verticalAlign=middle;spacingTop=-1;spacingLeft=3;spacingRight=3;rotatable=0;labelPosition=right;points=[];portConstraint=eastwest;" vertex="1" parent="nTRPJT_verkG5IVa2qYp-4">
          <mxGeometry y="52" width="190" height="8" as="geometry"/>
        </mxCell>
        <mxCell id="nTRPJT_verkG5IVa2qYp-8" value="+ setTask(Set&lt;Task&gt;): void" style="text;strokeColor=none;fillColor=none;align=left;verticalAlign=top;spacingLeft=4;spacingRight=4;overflow=hidden;rotatable=0;points=[[0,0.5],[1,0.5]];portConstraint=eastwest;" vertex="1" parent="nTRPJT_verkG5IVa2qYp-4">
          <mxGeometry y="60" width="190" height="26" as="geometry"/>
        </mxCell>
        <mxCell id="nTRPJT_verkG5IVa2qYp-7" value="+ run(): void" style="text;strokeColor=none;fillColor=none;align=left;verticalAlign=top;spacingLeft=4;spacingRight=4;overflow=hidden;rotatable=0;points=[[0,0.5],[1,0.5]];portConstraint=eastwest;" vertex="1" parent="nTRPJT_verkG5IVa2qYp-4">
          <mxGeometry y="86" width="190" height="26" as="geometry"/>
        </mxCell>
      </root>
    </mxGraphModel>
  </diagram>
</mxfile>
